<?xml version="1.0" encoding="utf-8"?>
<!-- Generator: Adobe Illustrator 19.1.1, SVG Export Plug-In . SVG Version: 6.00 Build 0)  -->
<svg version="1.1" id="main" xmlns="http://www.w3.org/2000/svg" xmlns:xlink="http://www.w3.org/1999/xlink" x="0px" y="0px"
	 viewBox="0 0 1000 866" style="enable-background:new 0 0 1000 866;" xml:space="preserve">
<defs>
	<style><![CDATA[
		.sprite { display: none; }
		.sprite:target { display: inline; }
		#teaching, #teaching1 {fill:#B1D7FF;}
		#research, #research1 {fill:#B2FFED;}
		#projects, #projects1 {fill:#FFE4B2;}
		#map, #map1 {fill:#AEFFD1;}
		#freelance, #freelance1 {fill:#F7FBC2;}
		#cvdeveloper, #cvdeveloper1 {fill:#FFB6B6;}
		#cvacademia, #cvacademia1 {fill:#F5CBFF;}
		#contact, #contact1 {fill:#E2E2E2;}
		#aboutme, #aboutme1 {fill:#B9F792;}
	]]></style>
</defs>
<g id="teaching1" class="sprite">
	<path class="st0" d="M422.1,713.7c-1.6,1.1-2.4,2.6-2.4,4.4c0,1.7,0.6,3.2,1.9,4.5c1.3,1.3,2.9,1.9,4.9,1.9c2.2,0,4.4-0.7,6.4-2.2
		c1.5-1.1,2.5-2.5,2.9-4.1c0.3-1.1,0.5-3.1,0.5-6v-2.5c-1.6,0.5-4.1,1.2-7.5,1.9S423.2,713,422.1,713.7z"/>
	<path class="st0" d="M379.1,693.8c-2.7,0-4.9,1-6.7,2.9s-2.6,4.6-2.6,8h18.5c-0.1-3.6-1-6.3-2.8-8.2
		C383.8,694.8,381.6,693.8,379.1,693.8z"/>
	<path class="st0" d="M665.8,693.8c-3,0-5.4,1.2-7.3,3.5c-1.9,2.3-2.9,5.8-2.9,10.5c0,5,1,8.6,2.9,10.9c1.9,2.3,4.3,3.5,7.1,3.5
		c3,0,5.6-1.2,7.6-3.5c2.1-2.4,3.1-5.9,3.1-10.5c0-4.8-1-8.4-3-10.8S668.8,693.8,665.8,693.8z"/>
	<path class="st0" d="M750,0H250L0,433l250,433h500l250-433L750,0z M304.3,185.7c8.3-3.5,11.8-4,25.5-3.7c19.2,0.7,30.2,5,43.5,17.5
		c10,9.3,15.7,19.7,19.2,35.5c2.5,10.7,2.5,12.7-0.2,24.3c-3.2,14.7-7,22-16.5,32.2c-14.3,15.2-28.7,20.8-50.7,19.8
		c-11.3-0.5-16.5-1.5-24-5c-21.5-10-35.8-30.5-37.5-53.5C261.3,222.3,276.6,197.3,304.3,185.7z M375.1,323.7c-0.7,0.7-4.3,0.8-8,0
		c-5.7-1.2-6.5-2-7-6.3s0.5-5.8,5.8-9.5c3.5-2.3,7.2-4.2,8-3.8C376.1,304.5,377.1,321.7,375.1,323.7z M339.9,732.1h-13v-53.5h-19.1
		v-10.9h51.2v10.9h-19.1V732.1z M400.6,712.3h-30.9c0.1,3.7,1.1,6.5,3,8.5c1.9,2,4.3,3.1,7.1,3.1c1.9,0,3.6-0.5,4.9-1.6
		s2.3-2.8,3-5.1l12.3,2.1c-1.6,4.5-4.1,7.9-7.5,10.3c-3.4,2.4-7.7,3.5-12.8,3.5c-8.1,0-14.1-2.7-18-8c-3.1-4.2-4.6-9.6-4.6-16.1
		c0-7.7,2-13.8,6.1-18.2s9.2-6.6,15.3-6.6c6.9,0,12.4,2.3,16.4,6.9C398.8,695.9,400.7,702.9,400.6,712.3z M439,732.1
		c-0.3-0.8-0.7-2-1.2-3.6c-0.2-0.7-0.4-1.2-0.4-1.5c-2.1,2.1-4.4,3.6-6.8,4.6c-2.4,1-5,1.5-7.7,1.5c-4.8,0-8.6-1.3-11.4-3.9
		s-4.2-5.9-4.2-9.9c0-2.6,0.6-5,1.9-7.1c1.3-2.1,3-3.6,5.3-4.7c2.3-1.1,5.5-2.1,9.8-2.9c5.8-1.1,9.8-2.1,12-3v-1.2
		c0-2.4-0.6-4.1-1.8-5.1c-1.2-1-3.4-1.5-6.6-1.5c-2.2,0-3.9,0.4-5.1,1.3c-1.2,0.9-2.2,2.4-3,4.5l-11.2-2c1.3-4.5,3.4-7.9,6.5-10
		s7.6-3.3,13.7-3.3c5.5,0,9.6,0.7,12.3,2c2.7,1.3,4.6,3,5.7,5s1.6,5.7,1.6,11.1l-0.1,14.4c0,4.1,0.2,7.1,0.6,9.1s1.1,4,2.2,6.3H439z
		 M494.7,728.9c-3.6,2.8-8.4,4.3-14.4,4.3c-6.8,0-12.3-2.2-16.3-6.5c-4.1-4.3-6.1-10.3-6.1-17.9c0-7.7,2-13.7,6.1-18
		c4.1-4.3,9.6-6.4,16.5-6.4c5.7,0,10.2,1.2,13.6,3.7c3.4,2.4,5.8,6.2,7.2,11.2l-12.2,2.2c-0.4-2.4-1.3-4.3-2.8-5.5s-3.3-1.8-5.6-1.8
		c-3.1,0-5.5,1.1-7.4,3.2c-1.8,2.1-2.7,5.7-2.7,10.7c0,5.5,0.9,9.4,2.8,11.7c1.9,2.3,4.4,3.4,7.5,3.4c2.3,0,4.3-0.7,5.8-2
		s2.5-3.6,3.2-6.9l12.1,2.1C500.7,721.9,498.3,726.1,494.7,728.9z M495.5,438.3c-8.7,3-14,1.5-38.2-10c-41.2-19.7-52.7-25-54.3-25
		c-2,0-0.7,73.7,2,121.7c0.8,15.2,1.5,37.7,1.5,50.2v22.7l-26.2,1c-14.5,0.7-46.3,1.2-70.7,1.2h-44.3l-1-23.8
		c-4.2-88.3-6.3-134-8-159c-2.2-32.8-1.5-39.3,5-53.2c13.8-29.2,53.8-42,104.5-33.2c15.5,2.8,22,5.3,42,17c6.8,4,12.5,7.2,13,7.2
		c0.3,0,6.8,3.7,14.3,8c7.7,4.5,20.5,11.7,28.7,16.2l15,8l3.3-4.3c3-3.7,21.8-34,33.3-53.3c7.8-13.3,12.3-18.8,17.7-21.7
		c9.2-4.7,17.7-2.7,25.5,5.7c10.3,11.5,9,16.7-12.7,51.7c-5.3,8.7-15.8,25.8-23.3,38.3C504.5,433.5,502.5,436.2,495.5,438.3z
		 M443.5,358.7c-0.7-2.3,43.8-2.8,45.3-0.7c0.3,0.7-1.2,4.5-3.7,8.3c-4,6.3-5.2,7-11.2,7C467.1,373.3,444.8,362.5,443.5,358.7z
		 M564,284.3c4.8-8.3,15.8-27.5,24.5-42.7c8.8-15.2,16.8-29.2,17.8-31.3c2.3-4.3,3.2-4.5,7-1c2.8,2.5,2.7,3.2-3.7,13.3
		c-3.5,5.8-6.5,11-6.5,11.5c0,0.3-5.5,10-12,21.3c-6.7,11.2-15.5,26.7-19.7,34.2c-7.3,13.2-10.5,15.8-14.5,11.8
		C555.6,300.2,557.5,295.5,564,284.3z M553.2,732.1h-12.3v-24.7c0-4.9-0.2-8-0.7-9.3s-1.3-2.4-2.5-3.1s-2.7-1.2-4.5-1.2
		c-2.1,0-3.9,0.5-5.5,1.5s-2.8,2.5-3.5,4.5s-1.1,5-1.1,8.9v23.4h-12.3v-64.4H523v23.7c4-4.7,8.7-7,14.3-7c2.8,0,5.4,0.5,7.7,1.6
		s4,2.4,5.2,4c1.2,1.6,1.9,3.5,2.4,5.4c0.4,2,0.6,5.1,0.6,9.3V732.1z M578,732.1h-12.3v-46.7H578V732.1z M578,679.1h-12.3v-11.4H578
		V679.1z M633.2,732.1h-12.3v-23.8c0-5-0.3-8.3-0.8-9.8s-1.4-2.6-2.6-3.5s-2.6-1.2-4.3-1.2c-2.1,0-4.1,0.6-5.8,1.8s-2.9,2.7-3.5,4.7
		c-0.6,1.9-0.9,5.5-0.9,10.7v21.1h-12.3v-46.7h11.5v6.9c4.1-5.3,9.2-7.9,15.4-7.9c2.7,0,5.2,0.5,7.5,1.5s4,2.2,5.1,3.8
		c1.2,1.5,2,3.3,2.4,5.2c0.5,1.9,0.7,4.7,0.7,8.3V732.1z M688.4,727.3c0,5.5-0.5,9.6-1.4,12.3s-2.2,4.9-3.8,6.4s-3.8,2.8-6.6,3.6
		c-2.7,0.9-6.2,1.3-10.4,1.3c-7.9,0-13.5-1.4-16.8-4.1s-5-6.1-5-10.3c0-0.4,0-0.9,0-1.5l14.1,1.7c0.2,1.6,0.8,2.8,1.6,3.4
		c1.2,0.9,3,1.3,5.5,1.3c3.2,0,5.6-0.5,7.3-1.5c1.1-0.6,1.9-1.7,2.5-3.1c0.4-1,0.6-2.9,0.6-5.7v-6.8c-3.7,5-8.3,7.6-14,7.6
		c-6.3,0-11.2-2.7-14.9-8c-2.9-4.2-4.3-9.4-4.3-15.6c0-7.8,1.9-13.8,5.6-17.9c3.8-4.1,8.4-6.2,14-6.2c5.8,0,10.5,2.5,14.3,7.6v-6.5
		h11.6V727.3z M744.8,236.7v136.7h-97.5h-97.7l2.8-5.5c6.2-12.2-1.5-11.2,91.8-11.2h83.8v-120v-120H552.3H376.5v35.7
		c0,21.2-0.7,36.2-1.7,36.8c-0.8,0.5-4.5-1-8.3-3.5l-6.7-4.5v-40.5V100h192.5h192.5V236.7z"/>
</g>
<g id="teaching" class="sprite">
	<path class="st0" d="M750,0H250L0,433l250,433h500l250-433L750,0z M265.2,235.8c10-4.2,14.2-4.8,30.6-4.4c23,0.8,36.2,6,52.2,21
		c12,11.2,18.8,23.6,23,42.6c3,12.8,3,15.2-0.2,29.2c-3.8,17.6-8.4,26.4-19.8,38.6c-17.2,18.2-34.4,25-60.8,23.8
		c-13.6-0.6-19.8-1.8-28.8-6c-25.8-12-43-36.6-45-64.2C213.6,279.8,232,249.8,265.2,235.8z M350.2,401.4c-0.8,0.8-5.2,1-9.6,0
		c-6.8-1.4-7.8-2.4-8.4-7.6c-0.6-5.2,0.6-7,7-11.4c4.2-2.8,8.6-5,9.6-4.6C351.4,378.4,352.6,399,350.2,401.4z M527.2,497.2
		c-21.8,36-24.2,39.2-32.6,41.8c-10.4,3.6-16.8,1.8-45.8-12c-49.4-23.6-63.2-30-65.2-30c-2.4,0-0.8,88.4,2.4,146
		c1,18.2,1.8,45.2,1.8,60.2v27.2l-31.4,1.2c-17.4,0.8-55.6,1.4-84.8,1.4h-53.2l-1.2-28.6c-5-106-7.6-160.8-9.6-190.8
		c-2.6-39.4-1.8-47.2,6-63.8c16.6-35,64.6-50.4,125.4-39.8c18.6,3.4,26.4,6.4,50.4,20.4c8.2,4.8,15,8.6,15.6,8.6
		c0.4,0,8.2,4.4,17.2,9.6c9.2,5.4,24.6,14,34.4,19.4l18,9.6l4-5.2c3.6-4.4,26.2-40.8,40-64c9.4-16,14.8-22.6,21.2-26
		c11-5.6,21.2-3.2,30.6,6.8c12.4,13.8,10.8,20-15.2,62C548.8,461.6,536.2,482.2,527.2,497.2z M432.2,443.4
		c-0.8-2.8,52.6-3.4,54.4-0.8c0.4,0.8-1.4,5.4-4.4,10c-4.8,7.6-6.2,8.4-13.4,8.4C460.6,461,433.8,448,432.2,443.4z M576.8,354.2
		c5.8-10,19-33,29.4-51.2c10.6-18.2,20.2-35,21.4-37.6c2.8-5.2,3.8-5.4,8.4-1.2c3.4,3,3.2,3.8-4.4,16c-4.2,7-7.8,13.2-7.8,13.8
		c0,0.4-6.6,12-14.4,25.6c-8,13.4-18.6,32-23.6,41c-8.8,15.8-12.6,19-17.4,14.2C566.8,373.2,569,367.6,576.8,354.2z M793.8,461h-117
		H559.6l3.4-6.6c7.4-14.6-1.8-13.4,110.2-13.4h100.6V297V153h-211h-211v42.8c0,25.4-0.8,43.4-2,44.2c-1,0.6-5.4-1.2-10-4.2l-8-5.4
		v-48.6V133h231h231v164V461z"/>
</g>
<g id="research1" class="sprite">
	<path class="st0" d="M424,408.1c0.3-0.6,0.7-1,0.8-1.2c-0.1,0.1-0.3,0.6-0.7,1L424,408.1z"/>
	<path class="st0" d="M341.9,691.4c0.9-1.3,1.3-2.9,1.3-4.8c0-2.2-0.6-3.9-1.7-5.3c-1.2-1.3-2.8-2.2-4.9-2.5
		c-1.1-0.1-4.2-0.2-9.5-0.2H317v16.3h9.6c6.2,0,10.1-0.3,11.7-0.8C339.8,693.6,341,692.7,341.9,691.4z"/>
	<path class="st0" d="M387.4,693.8c-2.7,0-4.9,1-6.7,2.9s-2.6,4.6-2.6,8h18.5c-0.1-3.6-1-6.3-2.8-8.2
		C392,694.8,389.9,693.8,387.4,693.8z"/>
	<path class="st0" d="M530.5,713.7c-1.6,1.1-2.4,2.6-2.4,4.4c0,1.7,0.6,3.2,1.9,4.5s2.9,1.9,4.9,1.9c2.2,0,4.4-0.7,6.4-2.2
		c1.5-1.1,2.5-2.5,2.9-4.1c0.3-1.1,0.5-3.1,0.5-6v-2.5c-1.6,0.5-4.1,1.2-7.5,1.9S531.6,713,530.5,713.7z"/>
	<path class="st0" d="M487.5,693.8c-2.7,0-4.9,1-6.7,2.9s-2.6,4.6-2.6,8h18.5c-0.1-3.6-1-6.3-2.8-8.2
		C492.1,694.8,490,693.8,487.5,693.8z"/>
	<path class="st0" d="M566.4,439.3c0-2.3-0.9-4.7-2.6-6.4c-1.6-1.7-3.9-2.6-6.3-2.6c-2.2,0-4.6,0.9-6.3,2.6c-1.6,1.7-2.6,4-2.6,6.4
		c0,2.3,0.9,4.7,2.6,6.4c1.7,1.6,4,2.6,6.3,2.6c2.3,0,4.6-0.9,6.3-2.6C565.4,444,566.4,441.6,566.4,439.3z"/>
	<path class="st0" d="M619.4,444.8l-0.1-0.2l-0.1-0.2l-53.3-80.5c0,0-2.1-3.2-3.6-5.6c-18-28.7-26.7-62.3-26.7-97.1v-83
		c0-7.4,0-20.5,1.1-24.9c5.1-19.8-0.3-17.5-10.2-17.5h-52.5c-9.8,0-16.4-2.5-11,17.7c1.2,4.8,1.1,18,1.1,24.8v83
		c0,35.4-10.2,68.9-27.7,97l-3.3,5.5l-52.6,80.9l-0.1,0.2l-0.1,0.2L325.7,526c-2.8,4.5-4.4,10-4.4,15.6c0,7,3.7,11.7,6.7,14.6
		c4.9,4.7,13.8,8,28.1,8h287.5c14.4,0,22.4-3.1,27.3-7.8c3-2.9,7.5-8,7.5-15.2c0-5.6-1.6-11.2-4.4-15.6L619.4,444.8z M638.5,546.4
		h-0.1H621h-33.4H412.3h-33.4h-17.4h-0.1c-8.3,0-15.1-6.7-15.1-15.1c0-3.1,0.9-6.1,2.6-8.5l9.4-14.3l0.6-0.9l0.4-0.7l0.7-1
		l16.9-25.9l47.9-73.3c0.2-0.3,0.6-0.7,0.8-1l0.1-0.1l13.1-20h122.1l14.7,22.2l0.1,0.2c0.3,0.4,0.8,0.9,1.1,1.3l1.2,1.9l45.2,69
		l13.3,20.3l14.5,22.1c0.2,0.3,0.3,0.6,0.6,0.9c1.5,2.2,2.1,4.9,2.1,7.7C653.6,539.6,646.9,546.4,638.5,546.4z"/>
	<path class="st0" d="M750,0H250L0,433l250,433h500l250-433L750,0z M346.3,732.1l-9.4-14c-3.3-5-5.6-8.2-6.9-9.5s-2.5-2.2-3.9-2.7
		c-1.4-0.5-3.6-0.7-6.5-0.7H317v26.9h-13v-64.4h27.4c6.9,0,11.9,0.6,15,1.7s5.6,3.2,7.5,6.2c1.9,3,2.8,6.3,2.8,10.2
		c0,4.8-1.4,8.8-4.3,12c-2.8,3.1-7.1,5.1-12.7,6c2.8,1.6,5.1,3.4,7,5.4c1.8,2,4.3,5.4,7.4,10.5l7.9,12.6H346.3z M408.8,712.3h-30.9
		c0.1,3.7,1.1,6.5,3,8.5c1.9,2,4.3,3.1,7.1,3.1c1.9,0,3.6-0.5,4.9-1.6s2.3-2.8,3-5.1l12.3,2.1c-1.6,4.5-4.1,7.9-7.5,10.3
		c-3.4,2.4-7.7,3.5-12.8,3.5c-8.1,0-14.1-2.7-18-8c-3.1-4.2-4.6-9.6-4.6-16.1c0-7.7,2-13.8,6.1-18.2s9.2-6.6,15.3-6.6
		c6.9,0,12.4,2.3,16.4,6.9C407.1,695.9,409,702.9,408.8,712.3z M452.8,728.6c-3.6,3.1-8.9,4.6-15.9,4.6c-6.4,0-11.4-1.3-15.1-3.9
		c-3.7-2.6-6.1-6.1-7.3-10.5l12.4-1.9c0.5,2.4,1.6,4.2,3.2,5.5c1.6,1.2,3.9,1.9,6.8,1.9c3.2,0,5.6-0.6,7.2-1.8
		c1.1-0.8,1.6-1.9,1.6-3.3c0-0.9-0.3-1.7-0.9-2.3c-0.6-0.6-2-1.1-4.1-1.6c-10-2.2-16.3-4.2-18.9-6c-3.7-2.5-5.5-6-5.5-10.5
		c0-4,1.6-7.4,4.8-10.2c3.2-2.8,8.1-4.1,14.9-4.1c6.4,0,11.1,1,14.2,3.1c3.1,2.1,5.2,5.2,6.4,9.2l-11.6,2.2
		c-0.5-1.8-1.4-3.2-2.8-4.2c-1.4-1-3.4-1.5-6-1.5c-3.3,0-5.6,0.5-7,1.4c-0.9,0.6-1.4,1.5-1.4,2.5c0,0.9,0.4,1.6,1.2,2.2
		c1.1,0.8,5,2,11.5,3.5c6.6,1.5,11.2,3.3,13.8,5.5c2.6,2.2,3.9,5.3,3.9,9.2C458.1,721.8,456.3,725.5,452.8,728.6z M508.9,712.3H478
		c0.1,3.7,1.1,6.5,3,8.5c1.9,2,4.3,3.1,7.1,3.1c1.9,0,3.6-0.5,4.9-1.6s2.3-2.8,3-5.1l12.3,2.1c-1.6,4.5-4.1,7.9-7.5,10.3
		c-3.4,2.4-7.7,3.5-12.8,3.5c-8.1,0-14.1-2.7-18-8c-3.1-4.2-4.6-9.6-4.6-16.1c0-7.7,2-13.8,6.1-18.2c4-4.4,9.2-6.6,15.3-6.6
		c6.9,0,12.4,2.3,16.4,6.9C507.2,695.9,509.1,702.9,508.9,712.3z M547.3,732.1c-0.3-0.8-0.7-2-1.2-3.6c-0.2-0.7-0.4-1.2-0.4-1.5
		c-2.1,2.1-4.4,3.6-6.8,4.6s-5,1.5-7.7,1.5c-4.8,0-8.6-1.3-11.4-3.9c-2.8-2.6-4.2-5.9-4.2-9.9c0-2.6,0.6-5,1.9-7.1
		c1.3-2.1,3-3.6,5.3-4.7c2.3-1.1,5.5-2.1,9.8-2.9c5.8-1.1,9.8-2.1,12-3v-1.2c0-2.4-0.6-4.1-1.8-5.1c-1.2-1-3.4-1.5-6.6-1.5
		c-2.2,0-3.9,0.4-5.1,1.3c-1.2,0.9-2.2,2.4-3,4.5l-11.2-2c1.3-4.5,3.4-7.9,6.5-10s7.6-3.3,13.7-3.3c5.5,0,9.6,0.7,12.3,2
		c2.7,1.3,4.6,3,5.7,5c1.1,2,1.6,5.7,1.6,11.1l-0.1,14.4c0,4.1,0.2,7.1,0.6,9.1c0.4,1.9,1.1,4,2.2,6.3H547.3z M594.9,697.5
		c-2.1-1.3-4-2-5.8-2c-1.7,0-3.2,0.5-4.4,1.4c-1.2,1-2.1,2.7-2.8,5.2c-0.7,2.5-1,7.7-1,15.6v14.4h-12.3v-46.7H580v6.6
		c2-3.1,3.7-5.2,5.3-6.2s3.3-1.5,5.3-1.5c2.8,0,5.5,0.8,8.1,2.3L594.9,697.5z M638.1,728.9c-3.6,2.8-8.4,4.3-14.4,4.3
		c-6.8,0-12.3-2.2-16.3-6.5c-4.1-4.3-6.1-10.3-6.1-17.9c0-7.7,2-13.7,6.1-18c4.1-4.3,9.6-6.4,16.5-6.4c5.7,0,10.2,1.2,13.6,3.7
		s5.8,6.2,7.2,11.2l-12.2,2.2c-0.4-2.4-1.3-4.3-2.8-5.5c-1.4-1.2-3.3-1.8-5.6-1.8c-3.1,0-5.5,1.1-7.4,3.2s-2.7,5.7-2.7,10.7
		c0,5.5,0.9,9.4,2.8,11.7c1.9,2.3,4.4,3.4,7.5,3.4c2.3,0,4.3-0.7,5.8-2s2.5-3.6,3.2-6.9l12.1,2.1
		C644.1,721.9,641.7,726.1,638.1,728.9z M696.6,732.1h-12.3v-24.7c0-4.9-0.2-8-0.7-9.3s-1.3-2.4-2.5-3.1c-1.2-0.8-2.7-1.2-4.5-1.2
		c-2.1,0-3.9,0.5-5.5,1.5s-2.8,2.5-3.5,4.5c-0.7,2-1.1,5-1.1,8.9v23.4h-12.3v-64.4h12.3v23.7c4-4.7,8.7-7,14.3-7
		c2.8,0,5.4,0.5,7.7,1.6s4,2.4,5.2,4s1.9,3.5,2.4,5.4s0.6,5.1,0.6,9.3V732.1z M643.8,600H356.3c-52.3,0-70.5-27-70.5-58.3
		c0-12.8,3.7-25.3,10.2-35.4l54.9-81.4l52.8-81.1l2.6-4.2c14.3-22.8,22.4-49.6,22.4-78.3c0,0,0-81.8,0-103.2
		c0-21.4-17.1-34.3-17.1-44c0-9.7,7.9-14.1,17.6-14.1h141.5c9.7,0,17.5,4.1,17.5,13.8s-16.7,21.9-16.7,43.6c0,21.8,0,103.8,0,103.8
		c0,28.8,6.9,55.7,21.2,78.3l3,4.6L649,425l55,81.5c6.5,10,10.2,22.4,10.3,35.3C714.3,573,696.2,600,643.8,600z"/>
	<path class="st0" d="M580,459c-1.6-2.6-4.4-4-7.3-4c-1.7,0-3.3,0.4-4.9,1.5c-4.1,2.7-5.2,8.3-2.6,12.4l26.2,40.1
		c1.7,2.6,4.6,4,7.4,4c1.6,0,3.2-0.4,4.8-1.5c4.1-2.7,5.2-8.3,2.6-12.4L580,459z"/>
</g>
<g id="research" class="sprite">
	<path class="st0" d="M408.8,502.8c0.4-0.7,0.8-1.2,0.9-1.5c-0.1,0.1-0.4,0.7-0.8,1.2L408.8,502.8z"/>
	<path class="st0" d="M750,0H250L0,433l250,433h500l250-433L750,0z M672.5,733h-345c-62.8,0-84.6-32.4-84.6-69.9
		c0-15.4,4.4-30.4,12.2-42.5l65.9-97.6l63.3-97.4l3.1-5.1c17.1-27.3,26.9-59.5,26.9-94c0,0,0-98.2,0-123.9s-20.5-41.1-20.5-52.8
		c0-11.7,9.5-16.9,21.2-16.9h169.8c11.7,0,21,5,21,16.6c0,11.7-20.1,26.2-20.1,52.4s0,124.6,0,124.6c0,34.6,8.3,66.8,25.4,94
		l3.6,5.5l64,97l66,97.8c7.8,12.1,12.2,26.9,12.3,42.3C757.1,700.6,735.4,733,672.5,733z"/>
	<path class="st0" d="M579.7,540.1c0-2.8-1.1-5.6-3.1-7.6c-1.9-2-4.7-3.1-7.5-3.1c-2.7,0-5.5,1.1-7.5,3.1c-1.9,2-3.1,4.8-3.1,7.6
		s1.1,5.6,3.1,7.6c2,1.9,4.8,3.1,7.5,3.1c2.8,0,5.5-1.1,7.5-3.1C578.5,545.8,579.7,543,579.7,540.1z"/>
	<path class="st0" d="M596,563.8c-1.9-3.1-5.2-4.8-8.7-4.8c-2,0-4,0.5-5.9,1.7c-5,3.2-6.3,9.9-3.1,14.9l31.5,48.1
		c2,3.1,5.5,4.8,8.8,4.8c1.9,0,3.9-0.5,5.8-1.7c5-3.2,6.3-9.9,3.1-14.9L596,563.8z"/>
	<path class="st0" d="M643.3,546.7l-0.1-0.3l-0.1-0.3l-64-96.6c0,0-2.5-3.9-4.3-6.7c-21.6-34.4-32-74.7-32-116.5v-99.6
		c0-8.8,0-24.6,1.3-29.9c6.2-23.7-0.4-21-12.2-21h-62.9c-11.8,0-19.7-2.9-13.3,21.3c1.5,5.8,1.3,21.6,1.3,29.7v99.6
		c0,42.5-12.2,82.6-33.2,116.4l-4,6.6l-63.1,97.1l-0.1,0.3l-0.1,0.3l-65.6,97.1c-3.3,5.4-5.2,12.1-5.2,18.8c0,8.4,4.4,14.1,8,17.5
		c5.9,5.6,16.6,9.6,33.8,9.6h345c17.3,0,26.9-3.8,32.8-9.4c3.6-3.5,9-9.6,9-18.2c0-6.7-1.9-13.4-5.2-18.8L643.3,546.7z M666.2,668.7
		h-0.1h-20.9h-40H394.7h-40h-20.9h-0.1c-9.9,0-18.1-8-18.1-18.1c0-3.8,1.1-7.4,3.1-10.2l11.3-17.1l0.7-1.1l0.5-0.8l0.8-1.2
		l20.2-31.1l57.5-88c0.3-0.4,0.7-0.8,0.9-1.2l0.1-0.1l15.7-24h146.5l17.7,26.7l0.1,0.3c0.4,0.5,0.9,1.1,1.3,1.6l1.5,2.3l54.2,82.8
		l15.9,24.4l17.4,26.5c0.3,0.4,0.4,0.7,0.7,1.1c1.7,2.7,2.5,5.9,2.5,9.2C684.3,660.5,676.3,668.7,666.2,668.7z"/>
</g>
<g id="projects1" class="sprite">
	<path class="st0" d="M351.7,232.5c-25.2,0-45.6,20.7-45.6,46c0,25.4,20.4,46,45.6,46c25.2,0,45.6-20.7,45.6-46
		C397.3,253.1,376.9,232.5,351.7,232.5z"/>
	<path class="st0" d="M445.2,694.5c-3.2,0-5.9,1.2-8.1,3.7s-3.3,6-3.3,10.6s1.1,8.2,3.3,10.6s4.9,3.7,8.1,3.7c3.2,0,5.9-1.2,8.1-3.7
		c2.2-2.5,3.3-6,3.3-10.7c0-4.6-1.1-8.1-3.3-10.5C451.1,695.7,448.4,694.5,445.2,694.5z"/>
	<path class="st0" d="M562.3,256c-12.3,0-22.4,10.1-22.4,22.5c0,12.4,10.1,22.5,22.4,22.5c12.4,0,22.4-10.1,22.5-22.5
		C584.8,266.1,574.7,256,562.3,256z"/>
	<path class="st0" d="M522.5,693.8c-2.7,0-4.9,1-6.7,2.9s-2.6,4.6-2.6,8h18.5c-0.1-3.6-1-6.3-2.8-8.2
		C527.1,694.8,525,693.8,522.5,693.8z"/>
	<path class="st0" d="M357.6,679c-1.6-0.3-4.7-0.4-9.4-0.4H342v18.3h7.1c5.1,0,8.6-0.3,10.3-1c1.7-0.7,3.1-1.7,4.1-3.2
		c1-1.4,1.5-3.1,1.5-5c0-2.3-0.7-4.3-2.1-5.8C361.5,680.4,359.7,679.4,357.6,679z"/>
	<path class="st0" d="M660.4,256c-12.3,0-22.4,10.1-22.4,22.5c0,12.4,10,22.5,22.4,22.5c12.4,0,22.4-10.1,22.4-22.5
		C682.8,266.1,672.7,256,660.4,256z"/>
	<path class="st0" d="M750,0H250L0,433l250,433h500l250-433L750,0z M376.2,697.5c-1.4,2.7-3.3,4.8-5.5,6.3c-2.2,1.5-4.5,2.6-6.7,3.1
		c-3.1,0.6-7.6,0.9-13.5,0.9H342v24.3h-13v-64.4h20.9c7.9,0,13.1,0.3,15.5,1c3.7,1,6.8,3.1,9.3,6.3c2.5,3.2,3.7,7.4,3.7,12.5
		C378.3,691.5,377.6,694.8,376.2,697.5z M414.8,697.5c-2.1-1.3-4-2-5.8-2c-1.7,0-3.2,0.5-4.4,1.4c-1.2,1-2.1,2.7-2.8,5.2
		c-0.7,2.5-1,7.7-1,15.6v14.4h-12.3v-46.7h11.5v6.6c2-3.1,3.7-5.2,5.3-6.2c1.6-1,3.3-1.5,5.3-1.5c2.8,0,5.5,0.8,8.1,2.3L414.8,697.5
		z M445.2,733.2c-4.3,0-8.4-1-12.2-2.9c-3.9-1.9-6.8-4.8-8.9-8.5c-2-3.7-3-8.3-3-13.6c0-4.1,1-8.1,3-11.9s4.9-6.8,8.6-8.8
		c3.7-2,7.8-3,12.4-3c7.1,0,12.8,2.3,17.4,6.9c4.5,4.6,6.8,10.4,6.8,17.4c0,7.1-2.3,12.9-6.8,17.6
		C457.8,730.9,452.1,733.2,445.2,733.2z M491,730.7c0,5.9-0.4,10.1-1.2,12.6c-0.8,2.4-2.3,4.4-4.5,5.7c-2.2,1.4-5,2.1-8.5,2.1
		c-1.2,0-2.6-0.1-4-0.3c-1.4-0.2-3-0.5-4.6-1l2.2-10.5c0.6,0.1,1.1,0.2,1.6,0.3c0.5,0.1,1,0.1,1.4,0.1c1.3,0,2.3-0.3,3.1-0.8
		c0.8-0.5,1.3-1.2,1.6-2s0.4-3,0.4-6.9v-44.5H491V730.7z M491,679.1h-12.3v-11.4H491V679.1z M543.9,712.3H513c0.1,3.7,1.1,6.5,3,8.5
		c1.9,2,4.3,3.1,7.1,3.1c1.9,0,3.6-0.5,4.9-1.6s2.3-2.8,3-5.1l12.3,2.1c-1.6,4.5-4.1,7.9-7.5,10.3c-3.4,2.4-7.7,3.5-12.8,3.5
		c-8.1,0-14.1-2.7-18-8c-3.1-4.2-4.6-9.6-4.6-16.1c0-7.7,2-13.8,6.1-18.2s9.2-6.6,15.3-6.6c6.9,0,12.4,2.3,16.4,6.9
		C542.2,695.9,544.1,702.9,543.9,712.3z M588,728.9c-3.6,2.8-8.4,4.3-14.4,4.3c-6.8,0-12.3-2.2-16.3-6.5c-4.1-4.3-6.1-10.3-6.1-17.9
		c0-7.7,2-13.7,6.1-18c4.1-4.3,9.6-6.4,16.5-6.4c5.7,0,10.2,1.2,13.6,3.7c3.4,2.4,5.8,6.2,7.2,11.2l-12.2,2.2
		c-0.4-2.4-1.3-4.3-2.8-5.5c-1.5-1.2-3.3-1.8-5.6-1.8c-3.1,0-5.5,1.1-7.4,3.2c-1.8,2.1-2.7,5.7-2.7,10.7c0,5.5,0.9,9.4,2.8,11.7
		c1.9,2.3,4.4,3.4,7.5,3.4c2.3,0,4.3-0.7,5.8-2s2.5-3.6,3.2-6.9l12.1,2.1C594,721.9,591.6,726.1,588,728.9z M616.7,733.2
		c-2.2,0-4.2-0.4-6-1.1c-1.8-0.7-3.1-1.7-3.9-2.9c-0.8-1.2-1.4-2.8-1.7-4.8c-0.3-1.4-0.4-4.3-0.4-8.7v-20.3h-5.7v-9.8h5.7v-9.3
		L617,669v16.5h8.4v9.8H617v18.8c0,3.8,0.1,6,0.2,6.7c0.2,0.6,0.5,1.1,1.1,1.6c0.6,0.4,1.3,0.6,2.1,0.6c1.1,0,2.8-0.4,5-1.2l1.1,9.6
		C623.6,732.6,620.3,733.2,616.7,733.2z M667.9,728.6c-3.6,3.1-8.9,4.6-15.9,4.6c-6.4,0-11.4-1.3-15.1-3.9
		c-3.7-2.6-6.1-6.1-7.3-10.5l12.4-1.9c0.5,2.4,1.6,4.2,3.2,5.5c1.6,1.2,3.9,1.9,6.8,1.9c3.2,0,5.6-0.6,7.2-1.8
		c1.1-0.8,1.6-1.9,1.6-3.3c0-0.9-0.3-1.7-0.9-2.3c-0.6-0.6-2-1.1-4.1-1.6c-10-2.2-16.3-4.2-18.9-6c-3.7-2.5-5.5-6-5.5-10.5
		c0-4,1.6-7.4,4.8-10.2s8.1-4.1,14.9-4.1c6.4,0,11.1,1,14.2,3.1s5.2,5.2,6.4,9.2l-11.6,2.2c-0.5-1.8-1.4-3.2-2.8-4.2
		c-1.4-1-3.4-1.5-6-1.5c-3.3,0-5.6,0.5-7,1.4c-0.9,0.6-1.4,1.5-1.4,2.5c0,0.9,0.4,1.6,1.2,2.2c1.1,0.8,5,2,11.5,3.5
		c6.6,1.5,11.2,3.3,13.8,5.5c2.6,2.2,3.9,5.3,3.9,9.2C673.2,721.8,671.4,725.5,667.9,728.6z M735.1,497.9c-29,13.8-61.7-17.9-93-57
		c-27.3-31.8-38.1-32.6-142.2-32.6c-104.2,0-116.9,2-142.2,32.6c-31.2,39.1-63.9,70.8-93,57c-29-13.8-33.5-88-8.9-190.7
		c24.6-102.6,50.6-157.2,102.7-172.7c52.1-15.6,68.5,13.8,141.3,13.8s89.2-29.2,141.3-13.8c52,15.6,78.1,70.1,102.7,172.7
		C768.6,409.9,764.1,484.1,735.1,497.9z"/>
	<path class="st0" d="M611.3,305.2c-12.3,0-22.4,10-22.4,22.5c0,12.4,10.1,22.5,22.4,22.5c12.4,0,22.5-10,22.5-22.5
		C633.8,315.3,623.7,305.2,611.3,305.2z"/>
	<path class="st0" d="M611.3,206.7c-12.3,0-22.4,10.1-22.4,22.5s10.1,22.5,22.4,22.5c12.4,0,22.5-10.1,22.5-22.5
		C633.8,216.8,623.7,206.7,611.3,206.7z"/>
</g>
<g id="projects" class="sprite">
	<path class="st0" d="M571.9,364.3c-14.2,0-25.8,11.6-25.8,26c0,14.3,11.6,26,25.8,26c14.3,0,25.8-11.6,26-26
		C597.9,375.9,586.2,364.3,571.9,364.3z"/>
	<path class="st0" d="M328.9,337.1c-29.1,0-52.6,23.8-52.6,53c0,29.3,23.6,53,52.6,53s52.6-23.8,52.6-53
		C381.5,360.9,357.9,337.1,328.9,337.1z"/>
	<path class="st0" d="M628.4,307.4c-14.2,0-25.8,11.6-25.8,26s11.6,26,25.8,26c14.3,0,26-11.6,26-26S642.7,307.4,628.4,307.4z"/>
	<path class="st0" d="M628.4,421.1c-14.2,0-25.8,11.5-25.8,26c0,14.3,11.6,26,25.8,26c14.3,0,26-11.5,26-26
		C654.4,432.7,642.7,421.1,628.4,421.1z"/>
	<path class="st0" d="M750,0H250L0,433l250,433h500l250-433L750,0z M771.3,643.3c-33.5,15.9-71.2-20.6-107.3-65.7
		c-31.5-36.7-43.9-37.6-164-37.6c-120.2,0-134.8,2.3-164,37.6c-36,45.1-73.8,81.7-107.3,65.7c-33.5-15.9-38.7-101.5-10.3-220
		c28.4-118.4,58.4-181.4,118.5-199.2C397,206.2,415.9,240,500,240s103-33.7,163.1-15.9c60,17.9,90.1,80.9,118.5,199.2
		C810,541.8,804.8,627.4,771.3,643.3z"/>
	<path class="st0" d="M685.1,364.3c-14.2,0-25.8,11.6-25.8,26c0,14.3,11.5,26,25.8,26c14.3,0,25.8-11.6,25.8-26
		C710.9,375.9,699.2,364.3,685.1,364.3z"/>
</g>
<g id="map1" class="sprite">
	<path class="st0" d="M502.9,713.7c-1.6,1.1-2.4,2.6-2.4,4.4c0,1.7,0.6,3.2,1.9,4.5s2.9,1.9,4.9,1.9c2.2,0,4.4-0.7,6.4-2.2
		c1.5-1.1,2.5-2.5,2.9-4.1c0.3-1.1,0.5-3.1,0.5-6v-2.5c-1.6,0.5-4.1,1.2-7.5,1.9S504,713,502.9,713.7z"/>
	<path class="st0" d="M563.9,694.1c-3,0-5.5,1.2-7.5,3.5c-2,2.3-3,5.8-3,10.3c0,5.2,1,9.1,3.1,11.6c2.1,2.5,4.6,3.8,7.6,3.8
		c2.9,0,5.3-1.1,7.2-3.5c1.9-2.3,2.9-6.1,2.9-11.3c0-4.9-1-8.5-2.9-10.9S566.8,694.1,563.9,694.1z"/>
	<path class="st0" d="M365.6,446.4c1.1-8.9,3.2-17.7,4.4-26.7c0.6-3.1-5.4-8.2-5.2-13.1c0-11.2,0.5-5.9-8.2-14.8
		c-4.8-4.9-11.1-11.6-13.6-18.1c-7.7-17.9,1.1-33.7,11.3-47.8c10.4-15.6-7.9-22.5-11-36.4c-1.1-6.3-8.1-6.2-7-13.4
		c1.1-7.4-4.3-5.8-10-9.8c-12.9-8.9-1.6-22.2-8.4-29c-48.4,78-39.9,180.1,17.8,249.8c0.7,0.8,1.4,1.7,2.1,2.5c0,0,0.1,0.1,0.1,0.1
		c3.5,4,7.1,7.9,10.9,11.7c3.6,3.6,7.4,7.1,11.2,10.5c0.5,0.4,1,0.9,1.6,1.3c0.8,0.7,1.7,1.4,2.5,2.1c8.2,6.7,16.7,12.8,25.6,18.2
		C365.5,509.7,363.6,478.4,365.6,446.4z"/>
	<path class="st0" d="M750,0H250L0,433l250,433h500l250-433L750,0z M478.6,732.1h-12.1v-50.7l-12.8,50.7h-12.5l-12.7-50.7v50.7
		h-12.1v-64.4h19.5l11.7,43.9l11.6-43.9h19.5V732.1z M519.8,732.1c-0.3-0.8-0.7-2-1.2-3.6c-0.2-0.7-0.4-1.2-0.4-1.5
		c-2.1,2.1-4.4,3.6-6.8,4.6s-5,1.5-7.7,1.5c-4.8,0-8.6-1.3-11.4-3.9s-4.2-5.9-4.2-9.9c0-2.6,0.6-5,1.9-7.1c1.3-2.1,3-3.6,5.3-4.7
		c2.3-1.1,5.5-2.1,9.8-2.9c5.8-1.1,9.8-2.1,12-3v-1.2c0-2.4-0.6-4.1-1.8-5.1c-1.2-1-3.4-1.5-6.6-1.5c-2.2,0-3.9,0.4-5.1,1.3
		c-1.2,0.9-2.2,2.4-3,4.5l-11.2-2c1.3-4.5,3.4-7.9,6.5-10s7.6-3.3,13.7-3.3c5.5,0,9.6,0.7,12.3,2c2.7,1.3,4.6,3,5.7,5
		s1.6,5.7,1.6,11.1l-0.1,14.4c0,4.1,0.2,7.1,0.6,9.1s1.1,4,2.2,6.3H519.8z M580.9,726.7c-3.8,4.3-8.4,6.5-13.8,6.5
		c-2.6,0-4.9-0.5-7-1.5c-2.1-1-4.3-2.8-6.6-5.3v23.5h-12.3v-64.4h11.5v6.9c1.5-2.3,3.5-4.2,6.1-5.7s5.4-2.2,8.5-2.2
		c5.4,0,10,2.1,13.8,6.4s5.7,10.2,5.7,17.8C586.7,716.3,584.8,722.4,580.9,726.7z M500,600c-138.1,0-250-111.9-250-250
		c0-138.1,111.9-250,250-250c138.1,0,250,111.9,250,250C750,488.1,638.1,600,500,600z"/>
	<path class="st0" d="M648.5,239.9c-6.3-3.6-10.3-2.4-12-0.3c-1.1,1.4,1,13.3,1,13.7c-0.7,3.5-11.2,4.9-14.4,5.7
		c-9.9,2.4-32.2-19.8-17-24.9c5-1.7,30.9-5.1,27.1-16.5c-3.4-7.3,1.8-14.6-6.5-15.7c-8.7-1.1-7-7.7-16.2-8.8
		c-5.6-0.9-5.8-12.1-5.9-15.8c-0.1-9.8,2-7.3,10.3-8.2c-19.5-12.4-40.7-21.5-63.1-27.1c-1.5,3-6.1,12.8-9.4,13.4
		c-5.2,1-7.2,0.3-10.4,3.5c-9.7,11.2-17.8,31.8-27.6,7.8c-4.9-12.5,4.9-20.9,1.7-30.8c-2.1-0.1-4.1-0.1-6.2-0.1c-1,0-2.1,0-3.1,0
		c6.9,13.9-6,20.8-9.6,21.6c-8.7-0.1-11.4-7-18.8-5.4c-5,1.3-7.5-4-11.6-1.6c-4.2,2.7-14.9,8.4-15.6,13.4
		c-2.9,13.6,6.9,14.1,15.4,6.3c7-7,19.5-12.8,28.2-6c6.7,5.5,5.2,10,5.2,15.2c0,5.4-1.9,19.5-10.8,17.7c-4.1-0.9-7.3-5.9-11.6-2.7
		c-9.5,7.9-19.9,6-32.1,9.6c-10.8,1.8-18.5,6.5-28.7,10.3c-8.7,3.2-11.3,4.6-12.7,13.6c-0.4,2.7-0.4,15.1-3.2,16.5
		c-5.9,2.2-9.2-24.1-24.7-22.2c-13.8,1.4-34.3,14.6-28.3,31.4c2.4,5.8,31.8,2.9,11.7,15.4c-2.1,1.3,1.5,18.5,1.6,21.7
		c1.3,9.4,14.7,20.8,23.8,11.7c7.1-7.1,6.2-6,15.3-2.3c16.7,8.4,36.9,16.3,50.2,29.8c6.8,7.1,10.8,27.4,19.8,31.9
		c10.2,5.1,21.1,5.2,28.9,14.8c6.8,8-2.6,21.4-9.3,25.8c-4.1,2.5-13.4,27.3-17.6,33c-2.2,4.4-13.5,6.4-17.5,7.3
		c-3.3,0.5-8.4,9.7-10.3,12.1c-7.7,7.7-9.3,15.4-18.9,21.8c-20.4,13.6-24.5,26.2-20,49.4c1.8,9.3,6.1,14.3,12.2,17.8
		c2.6,1.3,5.3,2.4,8,3.6c3.6,1.3,7.5,2.6,11.7,4.1c15.4,5.6,31.5,9.3,47.9,11.2c31.1,3.6,62.9,0.4,92.7-9.4
		c16.8-5.6,32.8-13.2,47.7-22.8c6.8-4.3,7.6-17.2,12.1-26.5c8.4-18.1-1.9-37.3,13.3-52.5c13.9-15.2,3.5-21.1,3.6-38.1
		c0.1-11.6,8.9-19.6,4.8-31.9c-1.6-4.1-7.6,3.9-9.9-0.7c-5.4-8.2-23-1.9-31.1-3.1c-14.9-2.2-26.8-15.7-37-25.6
		c-5.7-5.7-0.5-22.8,1-29.1c3.9-16.5-0.8-37.2,21-42.3c5.2-1,6.2-10.2,11.4-11.9c5.4-1.7,11-3.9,16.6-4.8
		c10.1-1.6,18.9,2.4,28.7,2.6c11.4,0.2,16.8,5.7,25.4,12.4c8.3,6.4,13.6,3.2,23.6,5.4c-1.9-0.4,0.4,0,0,0c7.5,0,1.2-6-1.3-9.4
		c-2.9-2.4-7.1-1.7-9.5-2.3C671,268.6,663.4,248.4,648.5,239.9z M596.1,206.3c-5.2,2-7.9-4.2-7.1-4.8c1.3-1.7,4-3.2,5.7-4.5
		c0-2.6-4-8.5,2.7-7.5c5,1.7,13.1,10.4,15.6,14.9c2.2,4.1,6.9,14.4,2.8,17.5c-3.2,2.4-10.4,2.2-13.9-5.7
		C598.3,208.3,601.3,204.3,596.1,206.3z"/>
</g>
<g id="map" class="sprite">
	<path class="st0" d="M338.7,548.7c1.3-10.7,3.9-21.3,5.2-32c0.8-3.8-6.5-9.8-6.3-15.7c0-13.5,0.6-7.1-9.9-17.8
		c-5.8-5.9-13.3-13.9-16.4-21.8c-9.2-21.5,1.3-40.4,13.5-57.3c12.5-18.7-9.5-27-13.3-43.7c-1.3-7.6-9.8-7.4-8.4-16.1
		c1.4-8.9-5.2-7-12.1-11.8c-15.5-10.7-1.9-26.7-10-34.8c-58,93.6-47.9,216.1,21.3,299.8c0.8,1,1.7,2,2.5,3c0,0.1,0.1,0.1,0.1,0.2
		c4.2,4.8,8.5,9.5,13,14c4.4,4.4,8.9,8.5,13.5,12.6c0.6,0.5,1.2,1.1,1.9,1.6c1,0.8,2,1.7,3,2.5c9.8,8.1,20.1,15.4,30.8,21.8
		C338.6,624.6,336.3,587.1,338.7,548.7z"/>
	<path class="st0" d="M737.7,342.8c-3.5-2.9-8.5-2.1-11.4-2.7c-21.1-4.8-30.2-29.1-48.1-39.2c-7.6-4.3-12.4-2.9-14.4-0.3
		c-1.3,1.6,1.1,16,1.2,16.4c-0.9,4.2-13.5,5.8-17.2,6.8c-11.9,2.8-38.6-23.8-20.4-29.9c6-2,37.1-6.1,32.5-19.8
		c-4.1-8.7,2.1-17.5-7.8-18.8c-10.4-1.4-8.4-9.2-19.5-10.5c-6.7-1.1-7-14.5-7.1-19c-0.2-11.7,2.4-8.8,12.4-9.9
		C614.5,201,589,190,562.1,183.4c-1.8,3.6-7.4,15.4-11.2,16c-6.3,1.2-8.6,0.3-12.5,4.2c-11.7,13.4-21.3,38.1-33.1,9.4
		c-5.9-15,5.8-25.1,2.1-37c-2.5-0.1-5-0.1-7.4-0.1c-1.2,0-2.5,0-3.7,0c8.3,16.7-7.2,25-11.5,25.9c-10.4-0.1-13.7-8.4-22.5-6.4
		c-6,1.5-9-4.9-13.9-1.9c-5.1,3.2-17.9,10.1-18.8,16.1c-3.4,16.3,8.3,16.9,18.5,7.5c8.4-8.4,23.4-15.4,33.9-7.2
		c8,6.7,6.2,12,6.3,18.2c0,6.4-2.3,23.4-13,21.3c-5-1.1-8.7-7.1-13.9-3.2c-11.4,9.5-23.8,7.2-38.6,11.5
		c-12.9,2.2-22.2,7.8-34.4,12.4c-10.5,3.9-13.6,5.6-15.3,16.3c-0.4,3.2-0.5,18.1-3.9,19.8c-7.1,2.7-11-29-29.6-26.7
		c-16.6,1.7-41.2,17.6-34,37.6c2.9,6.9,38.1,3.4,14.1,18.5c-2.5,1.6,1.8,22.2,1.9,26c1.6,11.3,17.6,25,28.5,14.1
		c8.5-8.5,7.5-7.2,18.3-2.8c20.1,10,44.3,19.5,60.3,35.8c8.2,8.5,13,32.9,23.7,38.3c12.2,6.1,25.3,6.2,34.7,17.8
		c8.2,9.6-3.1,25.7-11.1,30.9c-4.9,3-16.1,32.8-21.2,39.6c-2.7,5.3-16.2,7.7-21,8.7c-4,0.6-10.1,11.6-12.3,14.5
		c-9.2,9.2-11.1,18.5-22.6,26.2c-24.5,16.3-29.3,31.4-24.1,59.3c2.1,11.2,7.3,17.1,14.7,21.3c3.2,1.5,6.4,2.9,9.6,4.3
		c4.3,1.6,9,3.1,14,5c18.5,6.7,37.8,11.2,57.4,13.5c37.3,4.3,75.5,0.5,111.2-11.3c20.1-6.7,39.4-15.9,57.2-27.3
		c8.1-5.2,9.1-20.7,14.6-31.8c10.1-21.7-2.3-44.7,15.9-62.9c16.7-18.2,4.2-25.4,4.4-45.7c0.1-13.9,10.7-23.5,5.8-38.2
		c-1.9-4.9-9.2,4.7-11.9-0.8c-6.5-9.8-27.6-2.3-37.3-3.7c-17.9-2.6-32.2-18.9-44.4-30.8c-6.8-6.8-0.6-27.4,1.2-34.9
		c4.7-19.7-0.9-44.6,25.1-50.8c6.3-1.3,7.5-12.3,13.7-14.3c6.5-2,13.2-4.7,20-5.8c12.1-2,22.7,2.9,34.5,3.1
		c13.7,0.2,20.1,6.8,30.5,14.8c9.9,7.7,16.3,3.9,28.3,6.5c-2.3-0.5,0.5,0,0.1,0C748.3,354.1,740.7,346.9,737.7,342.8z M615.4,260.5
		c-6.2,2.4-9.4-5-8.5-5.8c1.6-2.1,4.8-3.8,6.8-5.4c0-3.1-4.8-10.2,3.2-9c6,2,15.8,12.5,18.7,17.8c2.7,4.9,8.3,17.3,3.4,20.9
		c-3.9,2.9-12.4,2.7-16.7-6.8C618,263,621.6,258.2,615.4,260.5z"/>
	<path class="st0" d="M750,0H250L0,433l250,433h500l250-433L750,0z M500,733c-165.7,0-300-134.3-300-300c0-165.7,134.3-300,300-300
		c165.7,0,300,134.3,300,300C800,598.7,665.7,733,500,733z"/>
</g>
<g id="freelance1" class="sprite">
	<path class="st0" d="M454.9,693.8c-2.7,0-4.9,1-6.7,2.9s-2.6,4.6-2.6,8h18.5c-0.1-3.6-1-6.3-2.8-8.2
		C459.6,694.8,457.5,693.8,454.9,693.8z"/>
	<path class="st0" d="M523,713.7c-1.6,1.1-2.4,2.6-2.4,4.4c0,1.7,0.6,3.2,1.9,4.5c1.3,1.3,2.9,1.9,4.9,1.9c2.2,0,4.4-0.7,6.4-2.2
		c1.5-1.1,2.5-2.5,2.9-4.1c0.3-1.1,0.5-3.1,0.5-6v-2.5c-1.6,0.5-4.1,1.2-7.5,1.9S524,713,523,713.7z"/>
	<path class="st0" d="M685.1,693.8c-2.7,0-4.9,1-6.7,2.9s-2.6,4.6-2.6,8h18.5c-0.1-3.6-1-6.3-2.8-8.2
		C689.7,694.8,687.6,693.8,685.1,693.8z"/>
	<path class="st0" d="M404.9,693.8c-2.7,0-4.9,1-6.7,2.9s-2.6,4.6-2.6,8h18.5c-0.1-3.6-1-6.3-2.8-8.2
		C409.5,694.8,407.4,693.8,404.9,693.8z"/>
	<path class="st0" d="M750,0H250L0,433l250,433h500l250-433L750,0z M710.6,214.1c1.6-4.6,6.6-7.1,11.3-5.5c4.6,1.6,7.1,6.7,5.5,11.3
		l-39.7,115.8c-0.3,0.9-0.8,1.7-1.3,2.5c-1.6,2.3-4.3,3.8-7.3,3.8H537.9c-4.9,0-8.9-4-8.9-8.9c0-4.9,4-8.9,8.9-8.9h135L710.6,214.1z
		 M502,100c30.5,0,55.3,24.8,55.3,55.3c0,30.5-24.8,55.3-55.3,55.3c-30.5,0-55.3-24.8-55.3-55.3C446.7,124.8,471.4,100,502,100z
		 M386.8,399.3V240.8c0-27.7,22.5-50.2,50.2-50.2l56.4,65.5v14.7l3,0L623,271c12.2,0,22.1,9.9,22.1,22.1c0,12.2-9.9,22.1-22.1,22.1
		H497c0,0-5-0.2-5.2-0.2c-5.2-0.2-10.1-2.3-13.6-6.1L435,261.5c-1.4-1.5-3.7-1.6-5.2-0.2c-1.5,1.4-1.6,3.7-0.2,5.2l43.2,47.2
		c4.9,5.3,11.8,8.4,19,8.4c0.1,0,1.6,0,1.6,0v60.5h5h49.2h13c1.2,0,5.8,0,6.9,0c15.7,0,28.4,12.7,28.4,28.3v160.8
		c0,15.6-12.7,28.3-28.4,28.3c-15.7,0-28.4-12.7-28.4-28.3V453.3h-40.7h-14h-32.7h-29.5c-18.9,0-34.3-14.8-35.3-33.4h0v0
		c0-0.6-0.1-1.3-0.1-2c0-0.7,0-1.3,0.1-2v-14.5C386.8,400.8,386.8,400,386.8,399.3z M340.7,678.6h-31.2v15.2h26.9v10.9h-26.9v27.4
		h-13v-64.4h44.2V678.6z M259,397.4c0-48.1,35.2-88.2,81.2-95.7v-46.5c0-10.5,8.5-19,19-19c10.5,0,19,8.5,19,19v110.7
		c0,10.5-8.5,19-19,19c-10.5,0-19-8.5-19-19v-43.6c-34.8,7.3-61,38.2-61,75.1c0,40.3,31.3,73.5,70.8,76.5
		c3.7-7.1,11.2-11.9,19.7-11.9l160.8,0v44.5H369.8c-8.7,0-16.3-5-19.9-12.4C299.2,491.1,259,448.9,259,397.4z M377.2,697.5
		c-2.1-1.3-4-2-5.8-2c-1.7,0-3.2,0.5-4.4,1.4c-1.2,1-2.1,2.7-2.8,5.2c-0.7,2.5-1,7.7-1,15.6v14.4h-12.3v-46.7h11.5v6.6
		c2-3.1,3.7-5.2,5.3-6.2c1.6-1,3.3-1.5,5.3-1.5c2.8,0,5.5,0.8,8.1,2.3L377.2,697.5z M426.3,712.3h-30.9c0.1,3.7,1.1,6.5,3,8.5
		c1.9,2,4.3,3.1,7.1,3.1c1.9,0,3.6-0.5,4.9-1.6s2.3-2.8,3-5.1l12.3,2.1c-1.6,4.5-4.1,7.9-7.5,10.3c-3.4,2.4-7.7,3.5-12.8,3.5
		c-8.1,0-14.1-2.7-18-8c-3.1-4.2-4.6-9.6-4.6-16.1c0-7.7,2-13.8,6.1-18.2s9.2-6.6,15.3-6.6c6.9,0,12.4,2.3,16.4,6.9
		C424.6,695.9,426.5,702.9,426.3,712.3z M476.4,712.3h-30.9c0.1,3.7,1.1,6.5,3,8.5c1.9,2,4.3,3.1,7.1,3.1c1.9,0,3.6-0.5,4.9-1.6
		s2.3-2.8,3-5.1l12.3,2.1c-1.6,4.5-4.1,7.9-7.5,10.3c-3.4,2.4-7.7,3.5-12.8,3.5c-8.1,0-14.1-2.7-18-8c-3.1-4.2-4.6-9.6-4.6-16.1
		c0-7.7,2-13.8,6.1-18.2s9.2-6.6,15.3-6.6c6.9,0,12.4,2.3,16.4,6.9C474.6,695.9,476.6,702.9,476.4,712.3z M498.8,732.1h-12.3v-64.4
		h12.3V732.1z M539.8,732.1c-0.3-0.8-0.7-2-1.2-3.6c-0.2-0.7-0.4-1.2-0.4-1.5c-2.1,2.1-4.4,3.6-6.8,4.6c-2.4,1-5,1.5-7.7,1.5
		c-4.8,0-8.6-1.3-11.4-3.9s-4.2-5.9-4.2-9.9c0-2.6,0.6-5,1.9-7.1c1.3-2.1,3-3.6,5.3-4.7c2.3-1.1,5.5-2.1,9.8-2.9
		c5.8-1.1,9.8-2.1,12-3v-1.2c0-2.4-0.6-4.1-1.8-5.1c-1.2-1-3.4-1.5-6.6-1.5c-2.2,0-3.9,0.4-5.1,1.3c-1.2,0.9-2.2,2.4-3,4.5l-11.2-2
		c1.3-4.5,3.4-7.9,6.5-10s7.6-3.3,13.7-3.3c5.5,0,9.6,0.7,12.3,2c2.7,1.3,4.6,3,5.7,5s1.6,5.7,1.6,11.1l-0.1,14.4
		c0,4.1,0.2,7.1,0.6,9.1s1.1,4,2.2,6.3H539.8z M604,732.1h-12.3v-23.8c0-5-0.3-8.3-0.8-9.8s-1.4-2.6-2.6-3.5s-2.6-1.2-4.3-1.2
		c-2.1,0-4.1,0.6-5.8,1.8c-1.7,1.2-2.9,2.7-3.5,4.7s-0.9,5.5-0.9,10.7v21.1h-12.3v-46.7h11.5v6.9c4.1-5.3,9.2-7.9,15.4-7.9
		c2.7,0,5.2,0.5,7.5,1.5c2.3,1,4,2.2,5.1,3.8s2,3.3,2.4,5.2s0.7,4.7,0.7,8.3V732.1z M650.5,728.9c-3.6,2.8-8.4,4.3-14.4,4.3
		c-6.8,0-12.3-2.2-16.3-6.5s-6.1-10.3-6.1-17.9c0-7.7,2-13.7,6.1-18c4.1-4.3,9.6-6.4,16.5-6.4c5.7,0,10.2,1.2,13.6,3.7
		s5.8,6.2,7.2,11.2l-12.2,2.2c-0.4-2.4-1.3-4.3-2.8-5.5s-3.3-1.8-5.6-1.8c-3.1,0-5.5,1.1-7.4,3.2s-2.7,5.7-2.7,10.7
		c0,5.5,0.9,9.4,2.8,11.7s4.4,3.4,7.5,3.4c2.3,0,4.3-0.7,5.8-2s2.5-3.6,3.2-6.9l12.1,2.1C656.5,721.9,654.1,726.1,650.5,728.9z
		 M706.5,712.3h-30.9c0.1,3.7,1.1,6.5,3,8.5c1.9,2,4.3,3.1,7.1,3.1c1.9,0,3.6-0.5,4.9-1.6s2.3-2.8,3-5.1l12.3,2.1
		c-1.6,4.5-4.1,7.9-7.5,10.3c-3.4,2.4-7.7,3.5-12.8,3.5c-8.1,0-14.1-2.7-18-8c-3.1-4.2-4.6-9.6-4.6-16.1c0-7.7,2-13.8,6.1-18.2
		s9.2-6.6,15.3-6.6c6.9,0,12.4,2.3,16.4,6.9C704.8,695.9,706.7,702.9,706.5,712.3z M741,374h-33h-63.8H511.9c-5.5,0-10-4.5-10-10
		v-6.1c0-5.5,4.5-10,10-10h132.3H708h33V374z"/>
</g>
<g id="freelance" class="sprite">
	<path class="st0" d="M750,0H250L0,433l250,433h500l250-433L750,0z M752.7,269.9c1.9-5.6,8-8.6,13.6-6.6c5.6,1.9,8.5,8,6.6,13.6
		l-47.6,139c-0.4,1.1-0.9,2.1-1.6,3c-1.9,2.8-5.1,4.6-8.8,4.6H545.5c-5.9,0-10.7-4.8-10.7-10.7c0-5.9,4.8-10.7,10.7-10.7h162
		L752.7,269.9z M502.3,133c36.6,0,66.3,29.7,66.3,66.3s-29.7,66.3-66.3,66.3c-36.6,0-66.3-29.7-66.3-66.3S465.7,133,502.3,133z
		 M536.7,620.9h-193c-10.5,0-19.5-6-23.9-14.8c-60.8-3.8-109-54.5-109-116.2c0-57.7,42.2-105.8,97.4-114.9v-55.8
		c0-12.6,10.2-22.8,22.8-22.8c12.6,0,22.8,10.2,22.8,22.8v132.8c0,12.6-10.2,22.8-22.8,22.8c-12.6,0-22.8-10.2-22.8-22.8v-52.3
		c-41.7,8.8-73.1,45.9-73.1,90.2c0,48.4,37.5,88.2,85,91.8c4.5-8.5,13.4-14.3,23.6-14.3l193,0V620.9z M615.1,699
		c0,18.8-15.3,34-34.1,34c-18.8,0-34.1-15.2-34.1-34V556.9H498h-16.8H442h-35.4c-22.6,0-41.1-17.7-42.4-40.1h0v0
		c0-0.8-0.1-1.6-0.1-2.3c0-0.8,0-1.6,0.1-2.3v-17.4c0-0.9-0.1-1.8-0.1-2.7V302c0-33.3,27-60.2,60.2-60.2l67.6,78.6v17.7l3.6,0
		l152,0.1c14.6,0,26.5,11.8,26.5,26.5c0,14.6-11.8,26.5-26.5,26.5H496.4c0,0-5.9-0.2-6.2-0.2c-6.3-0.2-12.1-2.7-16.3-7.3L422,326.8
		c-1.7-1.8-4.5-1.9-6.3-0.3c-1.8,1.7-1.9,4.5-0.3,6.3l51.9,56.7c5.8,6.4,14.1,10,22.8,10c0.1,0,1.9,0,1.9,0v72.6h6h59h15.6
		c1.5,0,7,0,8.3,0c18.8,0,34.1,15.2,34.1,34V699z M749.6,461.8H673H514.3c-6.6,0-12-5.4-12-12v-7.4c0-6.6,5.4-12,12-12H673h76.5
		h39.6v31.3H749.6z"/>
</g>
<g id="cvdeveloper1" class="sprite">
	<path class="st0" d="M625.3,694.5c-3.2,0-5.9,1.2-8.1,3.7s-3.3,6-3.3,10.6s1.1,8.2,3.3,10.6s4.9,3.7,8.1,3.7c3.2,0,5.9-1.2,8.1-3.7
		s3.3-6,3.3-10.7c0-4.6-1.1-8.1-3.3-10.5S628.5,694.5,625.3,694.5z"/>
	<path class="st0" d="M681.4,694.1c-3,0-5.5,1.2-7.5,3.5c-2,2.3-3,5.8-3,10.3c0,5.2,1,9.1,3.1,11.6c2.1,2.5,4.6,3.8,7.6,3.8
		c2.9,0,5.3-1.1,7.2-3.5c1.9-2.3,2.9-6.1,2.9-11.3c0-4.9-1-8.5-2.9-10.9S684.3,694.1,681.4,694.1z"/>
	<path class="st0" d="M447.4,693.8c-2.7,0-4.9,1-6.7,2.9s-2.6,4.6-2.6,8h18.5c-0.1-3.6-1-6.3-2.8-8.2
		C452.1,694.8,449.9,693.8,447.4,693.8z"/>
	<path class="st0" d="M547.5,693.8c-2.7,0-4.9,1-6.7,2.9s-2.6,4.6-2.6,8h18.5c-0.1-3.6-1-6.3-2.8-8.2
		C552.2,694.8,550,693.8,547.5,693.8z"/>
	<path class="st0" d="M732.5,693.8c-2.7,0-4.9,1-6.7,2.9s-2.6,4.6-2.6,8h18.5c-0.1-3.6-1-6.3-2.8-8.2
		C737.2,694.8,735.1,693.8,732.5,693.8z"/>
	<path class="st0" d="M750,0H250L0,433l250,433h500l250-433L750,0z M584.9,542c30.2-0.9,65.4-13.4,65.4-52.7V435
		c0-46.4,19.8-72.8,47.6-85c-27.8-12.2-47.6-38.6-47.6-85v-54.2c0-39.3-35.2-51.8-65.4-52.7v-58c82.3,0,130.8,28.2,130.8,104.3v60.4
		c0,38.6,30.7,55.9,62,55.9v58.7c-31.3,0-62,17.3-62,55.9v60.4c0,76.1-48.6,104.3-130.8,104.3V542z M466.6,217.8h76.7v76.9h-76.7
		V217.8z M466.6,375.6h76.7v0c0,0,0,23.3,0,49c0,43.8-27.7,79.3-68.1,87.3l-7.7-16.5c18.7-7,30.6-29.7,30.6-46.7h-31.6V375.6z
		 M258.1,728.1c-4.5,3.4-10.2,5.1-17.1,5.1c-8.6,0-15.6-2.9-21.1-8.8c-5.5-5.8-8.3-13.8-8.3-24c0-10.7,2.8-19.1,8.3-25
		c5.5-5.9,12.8-8.9,21.8-8.9c7.9,0,14.3,2.3,19.2,7c2.9,2.8,5.1,6.7,6.6,11.9l-12.9,3.1c-0.8-3.3-2.4-6-4.8-7.9s-5.4-2.9-8.8-2.9
		c-4.8,0-8.7,1.7-11.6,5.1c-3,3.4-4.5,9-4.5,16.7c0,8.1,1.5,13.9,4.4,17.4c2.9,3.5,6.7,5.2,11.4,5.2c3.5,0,6.4-1.1,8.9-3.3
		c2.5-2.2,4.3-5.7,5.4-10.4l12.6,4C265.8,719.5,262.6,724.7,258.1,728.1z M222.3,379.4v-58.7c31.3,0,62-17.3,62-55.9v-60.4
		c0-76.1,48.6-104.3,130.8-104.3v58c-30.2,0.9-65.4,13.4-65.4,52.7V265c0,46.4-19.8,72.8-47.6,85c27.8,12.2,47.6,38.6,47.6,85v54.2
		c0,39.3,35.2,51.8,65.4,52.7v58c-82.3,0-130.8-28.2-130.8-104.3v-60.4C284.3,396.7,253.6,379.4,222.3,379.4z M309.3,732.1h-13.9
		l-23-64.4h14.1l16.3,47.7l15.8-47.7h13.8L309.3,732.1z M416,714.2c-1.6,4.7-3.9,8.5-6.9,11.4c-2.3,2.2-5.3,3.9-9.1,5.1
		c-2.9,0.9-6.7,1.4-11.5,1.4h-24.5v-64.4h23.8c5.4,0,9.4,0.4,12.3,1.2c3.8,1.1,7,3.1,9.7,5.9c2.7,2.8,4.7,6.3,6.2,10.4
		c1.4,4.1,2.1,9.2,2.1,15.2C417.9,705.8,417.3,710.4,416,714.2z M468.9,712.3h-30.9c0.1,3.7,1.1,6.5,3,8.5c1.9,2,4.3,3.1,7.1,3.1
		c1.9,0,3.6-0.5,4.9-1.6s2.3-2.8,3-5.1l12.3,2.1c-1.6,4.5-4.1,7.9-7.5,10.3c-3.4,2.4-7.7,3.5-12.8,3.5c-8.1,0-14.1-2.7-18-8
		c-3.1-4.2-4.6-9.6-4.6-16.1c0-7.7,2-13.8,6.1-18.2s9.2-6.6,15.3-6.6c6.9,0,12.4,2.3,16.4,6.9C467.1,695.9,469,702.9,468.9,712.3z
		 M502.9,732.1h-11.1L473,685.4h13l8.8,23.8l2.5,8c0.7-2,1.1-3.4,1.3-4c0.4-1.3,0.8-2.6,1.3-4l8.9-23.8h12.7L502.9,732.1z
		 M569,712.3H538c0.1,3.7,1.1,6.5,3,8.5c1.9,2,4.3,3.1,7.1,3.1c1.9,0,3.6-0.5,4.9-1.6s2.3-2.8,3-5.1l12.3,2.1
		c-1.6,4.5-4.1,7.9-7.5,10.3s-7.7,3.5-12.8,3.5c-8.1,0-14.1-2.7-18-8c-3.1-4.2-4.6-9.6-4.6-16.1c0-7.7,2-13.8,6.1-18.2
		s9.2-6.6,15.3-6.6c6.9,0,12.4,2.3,16.4,6.9C567.2,695.9,569.1,702.9,569,712.3z M591.4,732.1H579v-64.4h12.3V732.1z M642.5,726.2
		c-4.6,4.6-10.3,7-17.2,7c-4.3,0-8.4-1-12.2-2.9s-6.8-4.8-8.9-8.5c-2-3.7-3-8.3-3-13.6c0-4.1,1-8.1,3-11.9s4.9-6.8,8.6-8.8
		s7.8-3,12.4-3c7.1,0,12.8,2.3,17.4,6.9c4.5,4.6,6.8,10.4,6.8,17.4C649.3,715.7,647.1,721.6,642.5,726.2z M698.5,726.7
		c-3.8,4.3-8.4,6.5-13.8,6.5c-2.6,0-4.9-0.5-7-1.5s-4.3-2.8-6.6-5.3v23.5h-12.3v-64.4h11.5v6.9c1.5-2.3,3.5-4.2,6.1-5.7
		s5.4-2.2,8.5-2.2c5.4,0,10,2.1,13.8,6.4s5.7,10.2,5.7,17.8C704.2,716.3,702.3,722.4,698.5,726.7z M754,712.3H723
		c0.1,3.7,1.1,6.5,3,8.5c1.9,2,4.3,3.1,7.1,3.1c1.9,0,3.6-0.5,4.9-1.6s2.3-2.8,3-5.1l12.3,2.1c-1.6,4.5-4.1,7.9-7.5,10.3
		c-3.4,2.4-7.7,3.5-12.8,3.5c-8.1,0-14.1-2.7-18-8c-3.1-4.2-4.6-9.6-4.6-16.1c0-7.7,2-13.8,6.1-18.2s9.2-6.6,15.3-6.6
		c6.9,0,12.4,2.3,16.4,6.9C752.2,695.9,754.2,702.9,754,712.3z M784.1,695.5c-1.7,0-3.2,0.5-4.4,1.4c-1.2,1-2.1,2.7-2.8,5.2
		c-0.7,2.5-1,7.7-1,15.6v14.4h-12.3v-46.7H775v6.6c2-3.1,3.7-5.2,5.3-6.2s3.3-1.5,5.3-1.5c2.8,0,5.5,0.8,8.1,2.3l-3.8,10.8
		C787.8,696.1,785.9,695.5,784.1,695.5z"/>
	<path class="st0" d="M399.5,682.2c-1.6-1.5-3.6-2.5-6-3c-1.8-0.4-5.4-0.6-10.7-0.6h-5.8v42.7h9.7c3.6,0,6.3-0.2,7.9-0.6
		c2.1-0.5,3.9-1.4,5.3-2.7c1.4-1.3,2.5-3.3,3.4-6.2c0.9-2.9,1.3-6.8,1.3-11.8s-0.4-8.8-1.3-11.5S401.1,683.7,399.5,682.2z"/>
</g>
<g id="cvdeveloper" class="sprite">
	<path class="st0" d="M750,0H250L0,433l250,433h500l250-433L750,0z M406.6,221.8c-33.2,1-71.9,14.8-71.9,58v59.7
		c0,51.1-21.8,80.1-52.4,93.5c30.6,13.4,52.4,42.4,52.4,93.5v59.7c0,43.2,38.8,57,71.9,58V708c-90.5,0-143.9-31-143.9-114.7v-66.5
		c0-42.5-33.8-61.5-68.1-61.5v-64.6c34.4,0,68.1-19,68.1-61.5v-66.5c0-83.7,53.4-114.7,143.9-114.7V221.8z M547.7,461.2
		c0,0,0,25.7,0,53.9c0,48.2-30.5,87.2-74.9,96l-8.4-18.2c20.6-7.7,33.6-32.6,33.6-51.3h-34.7v-80.5L547.7,461.2L547.7,461.2z
		 M547.7,372.2h-84.4v-84.5h84.4V372.2z M737.3,526.8v66.5c0,83.7-53.4,114.7-143.9,114.7v-63.8c33.2-1,71.9-14.8,71.9-58v-59.7
		c0-51.1,21.8-80.1,52.4-93.5c-30.6-13.4-52.4-42.4-52.4-93.5v-59.7c0-43.2-38.8-57-71.9-58V158c90.5,0,143.9,31,143.9,114.7v66.5
		c0,42.5,33.8,61.5,68.1,61.5v64.6C771.1,465.3,737.3,484.3,737.3,526.8z"/>
</g>
<g id="cvacademia1" class="sprite">
	<path class="st0" d="M472.3,328.2c0-36-21.9-61.2-53.3-61.2s-53.3,25.1-53.3,61.2v15.5h106.7V328.2z"/>
	<path class="st0" d="M420,246.2c25.1,0,45.6-20.4,45.6-45.5c0-25.1-20.4-45.5-45.6-45.5c-25.1,0-45.5,20.4-45.5,45.5
		C374.5,225.8,394.9,246.2,420,246.2z"/>
	<path class="st0" d="M605.8,693.8c-2.7,0-4.9,1-6.7,2.9s-2.6,4.6-2.6,8H615c-0.1-3.6-1-6.3-2.8-8.2
		C610.5,694.8,608.3,693.8,605.8,693.8z"/>
	<path class="st0" d="M311.5,120.8v458.3h377.1V181.4l-78.5-60.6H311.5z M520.8,296.6h129.7c5.8,0,10.4,4.7,10.4,10.4
		s-4.7,10.4-10.4,10.4H520.8c-5.8,0-10.4-4.7-10.4-10.4S515.1,296.6,520.8,296.6z M510.4,260.7c0-5.8,4.7-10.4,10.4-10.4h129.7
		c5.8,0,10.4,4.7,10.4,10.4c0,5.8-4.7,10.4-10.4,10.4H520.8C515.1,271.1,510.4,266.4,510.4,260.7z M520.8,339.6h129.7
		c5.8,0,10.4,4.7,10.4,10.4s-4.7,10.4-10.4,10.4H520.8c-5.8,0-10.4-4.7-10.4-10.4S515.1,339.6,520.8,339.6z M344.8,328.2
		c0-22.2,6.9-42.5,19.5-57.4c5.3-6.2,11.5-11.3,18.4-15.3c-17.5-12-29.1-32.1-29.1-54.9c0-36.6,29.8-66.4,66.3-66.4
		c36.6,0,66.4,29.8,66.4,66.4c0,23.2-12,43.6-30.1,55.5c6.5,3.8,12.3,8.8,17.3,14.7c12.6,14.8,19.5,35.2,19.5,57.4v25.9
		c0,5.8-4.7,10.4-10.4,10.4H355.2c-5.8,0-10.4-4.7-10.4-10.4V328.2z M650.6,553.6H353c-5.8,0-10.4-4.7-10.4-10.4
		c0-5.8,4.7-10.4,10.4-10.4h297.5c5.8,0,10.4,4.7,10.4,10.4C661,549,656.3,553.6,650.6,553.6z M650.6,501H353
		c-5.8,0-10.4-4.7-10.4-10.4c0-5.8,4.7-10.4,10.4-10.4h297.5c5.8,0,10.4,4.7,10.4,10.4C661,496.4,656.3,501,650.6,501z M650.6,449.3
		H353c-5.8,0-10.4-4.7-10.4-10.4c0-5.8,4.7-10.4,10.4-10.4h297.5c5.8,0,10.4,4.7,10.4,10.4C661,444.6,656.3,449.3,650.6,449.3z
		 M650.6,402.9H353c-5.8,0-10.4-4.7-10.4-10.4c0-5.8,4.7-10.4,10.4-10.4h297.5c5.8,0,10.4,4.7,10.4,10.4
		C661,398.3,656.3,402.9,650.6,402.9z M661,210.4c0,5.8-4.7,10.4-10.4,10.4H520.8c-5.8,0-10.4-4.7-10.4-10.4
		c0-5.8,4.7-10.4,10.4-10.4h129.7C656.3,200,661,204.7,661,210.4z"/>
	<path class="st0" d="M552.5,693.8c-2.9,0-5.4,1.2-7.4,3.5c-2,2.3-3,5.8-3,10.4c0,5,0.7,8.6,2.1,10.8c2,3.2,4.8,4.8,8.3,4.8
		c2.8,0,5.3-1.2,7.3-3.6c2-2.4,3-6,3-10.8c0-5.4-1-9.2-2.9-11.6S555.5,693.8,552.5,693.8z"/>
	<path class="st0" d="M750,0H250L0,433l250,433h500l250-433L750,0z M264.8,728.1c-4.5,3.4-10.2,5.1-17.1,5.1
		c-8.6,0-15.6-2.9-21.1-8.8c-5.5-5.8-8.3-13.8-8.3-24c0-10.7,2.8-19.1,8.3-25c5.5-5.9,12.8-8.9,21.8-8.9c7.9,0,14.3,2.3,19.2,7
		c2.9,2.8,5.1,6.7,6.6,11.9l-12.9,3.1c-0.8-3.3-2.4-6-4.8-7.9s-5.4-2.9-8.8-2.9c-4.8,0-8.7,1.7-11.6,5.1c-3,3.4-4.5,9-4.5,16.7
		c0,8.1,1.5,13.9,4.4,17.4c2.9,3.5,6.7,5.2,11.4,5.2c3.5,0,6.4-1.1,8.9-3.3c2.5-2.2,4.3-5.7,5.4-10.4l12.6,4
		C272.5,719.5,269.3,724.7,264.8,728.1z M315.9,732.1H302l-23-64.4h14.1l16.3,47.7l15.8-47.7H339L315.9,732.1z M411.2,732.1
		l-5.6-14.6h-25.8l-5.3,14.6h-13.8l25.1-64.4h13.8l25.8,64.4H411.2z M466.3,728.9c-3.6,2.8-8.4,4.3-14.4,4.3
		c-6.8,0-12.3-2.2-16.3-6.5c-4.1-4.3-6.1-10.3-6.1-17.9c0-7.7,2-13.7,6.1-18c4.1-4.3,9.6-6.4,16.5-6.4c5.7,0,10.2,1.2,13.6,3.7
		c3.4,2.4,5.8,6.2,7.2,11.2l-12.2,2.2c-0.4-2.4-1.3-4.3-2.8-5.5s-3.3-1.8-5.6-1.8c-3.1,0-5.5,1.1-7.4,3.2c-1.8,2.1-2.7,5.7-2.7,10.7
		c0,5.5,0.9,9.4,2.8,11.7c1.9,2.3,4.4,3.4,7.5,3.4c2.3,0,4.3-0.7,5.8-2s2.5-3.6,3.2-6.9l12.1,2.1
		C472.2,721.9,469.8,726.1,466.3,728.9z M510.6,732.1c-0.3-0.8-0.7-2-1.2-3.6c-0.2-0.7-0.4-1.2-0.4-1.5c-2.1,2.1-4.4,3.6-6.8,4.6
		c-2.4,1-5,1.5-7.7,1.5c-4.8,0-8.6-1.3-11.4-3.9s-4.2-5.9-4.2-9.9c0-2.6,0.6-5,1.9-7.1c1.3-2.1,3-3.6,5.3-4.7
		c2.3-1.1,5.5-2.1,9.8-2.9c5.8-1.1,9.8-2.1,12-3v-1.2c0-2.4-0.6-4.1-1.8-5.1c-1.2-1-3.4-1.5-6.6-1.5c-2.2,0-3.9,0.4-5.1,1.3
		c-1.2,0.9-2.2,2.4-3,4.5l-11.2-2c1.3-4.5,3.4-7.9,6.5-10s7.6-3.3,13.7-3.3c5.5,0,9.6,0.7,12.3,2c2.7,1.3,4.6,3,5.7,5
		s1.6,5.7,1.6,11.1l-0.1,14.4c0,4.1,0.2,7.1,0.6,9.1s1.1,4,2.2,6.3H510.6z M575.1,732.1h-11.5v-6.9c-1.9,2.7-4.2,4.7-6.7,6
		c-2.6,1.3-5.2,2-7.8,2c-5.4,0-10-2.2-13.8-6.5c-3.8-4.3-5.7-10.3-5.7-18.1c0-7.9,1.9-13.9,5.6-18c3.7-4.1,8.4-6.2,14.1-6.2
		c5.2,0,9.7,2.2,13.5,6.5v-23.2h12.3V732.1z M627.3,712.3h-30.9c0.1,3.7,1.1,6.5,3,8.5c1.9,2,4.3,3.1,7.1,3.1c1.9,0,3.6-0.5,4.9-1.6
		s2.3-2.8,3-5.1l12.3,2.1c-1.6,4.5-4.1,7.9-7.5,10.3c-3.4,2.4-7.7,3.5-12.8,3.5c-8.1,0-14.1-2.7-18-8c-3.1-4.2-4.6-9.6-4.6-16.1
		c0-7.7,2-13.8,6.1-18.2s9.2-6.6,15.3-6.6c6.9,0,12.4,2.3,16.4,6.9C625.5,695.9,627.4,702.9,627.3,712.3z M705,732.1h-12.3v-26.7
		c0-4.6-0.4-7.6-1.3-9c-1.1-1.8-2.9-2.6-5.3-2.6c-1.7,0-3.4,0.5-4.9,1.6s-2.6,2.6-3.3,4.6c-0.7,2-1,5.3-1,9.6v22.4h-12.3v-25.6
		c0-4.5-0.2-7.5-0.7-8.8s-1.1-2.3-2-2.9s-2.2-1-3.8-1c-1.9,0-3.6,0.5-5.1,1.5s-2.6,2.5-3.3,4.4s-1,5.1-1,9.6v22.7h-12.3v-46.7h11.4
		v6.4c4.1-5,8.9-7.4,14.5-7.4c3,0,5.6,0.6,7.8,1.8s4,3.1,5.4,5.6c2.1-2.5,4.3-4.4,6.6-5.6s4.9-1.8,7.6-1.8c3.4,0,6.3,0.7,8.7,2.1
		s4.1,3.4,5.3,6.1c0.8,2,1.3,5.2,1.3,9.7V732.1z M709.4,589.6c0,5.8-4.7,10.4-10.4,10.4H301c-5.8,0-10.4-4.7-10.4-10.4V110.4
		c0-5.8,4.7-10.4,10.4-10.4h312.6c2.3,0,4.5,0.8,6.4,2.2l85.3,65.9c2.6,2,4.1,5,4.1,8.2V589.6z M729.7,732.1h-12.3v-46.7h12.3V732.1
		z M729.7,679.1h-12.3v-11.4h12.3V679.1z M769.5,728.5c-0.2-0.7-0.4-1.2-0.4-1.5c-2.1,2.1-4.4,3.6-6.8,4.6s-5,1.5-7.7,1.5
		c-4.8,0-8.6-1.3-11.4-3.9c-2.8-2.6-4.2-5.9-4.2-9.9c0-2.6,0.6-5,1.9-7.1c1.3-2.1,3-3.6,5.3-4.7c2.3-1.1,5.5-2.1,9.8-2.9
		c5.8-1.1,9.8-2.1,12-3v-1.2c0-2.4-0.6-4.1-1.8-5.1c-1.2-1-3.4-1.5-6.6-1.5c-2.2,0-3.9,0.4-5.1,1.3c-1.2,0.9-2.2,2.4-3,4.5l-11.2-2
		c1.3-4.5,3.4-7.9,6.5-10s7.6-3.3,13.7-3.3c5.5,0,9.6,0.7,12.3,2c2.7,1.3,4.6,3,5.7,5c1.1,2,1.6,5.7,1.6,11.1l-0.1,14.4
		c0,4.1,0.2,7.1,0.6,9.1c0.4,1.9,1.1,4,2.2,6.3h-12.2C770.4,731.3,770,730.1,769.5,728.5z"/>
	<polygon class="st0" points="383.9,706.6 401.4,706.6 392.6,682.7 	"/>
	<path class="st0" d="M753.9,713.7c-1.6,1.1-2.4,2.6-2.4,4.4c0,1.7,0.6,3.2,1.9,4.5s2.9,1.9,4.9,1.9c2.2,0,4.4-0.7,6.4-2.2
		c1.5-1.1,2.5-2.5,2.9-4.1c0.3-1.1,0.5-3.1,0.5-6v-2.5c-1.6,0.5-4.1,1.2-7.5,1.9S754.9,713,753.9,713.7z"/>
	<path class="st0" d="M493.8,713.7c-1.6,1.1-2.4,2.6-2.4,4.4c0,1.7,0.6,3.2,1.9,4.5c1.3,1.3,2.9,1.9,4.9,1.9c2.2,0,4.4-0.7,6.4-2.2
		c1.5-1.1,2.5-2.5,2.9-4.1c0.3-1.1,0.5-3.1,0.5-6v-2.5c-1.6,0.5-4.1,1.2-7.5,1.9C497.1,712.3,494.8,713,493.8,713.7z"/>
</g>
<g id="cvacademia" class="sprite">
	<path class="st0" d="M404,308.5c30.1,0,54.7-24.5,54.7-54.6c0-30.1-24.5-54.6-54.7-54.6c-30.1,0-54.6,24.5-54.6,54.6
		C349.4,284,373.9,308.5,404,308.5z"/>
	<path class="st0" d="M273.8,158v550h452.5V230.7L632.1,158H273.8z M525,368.9h155.7c6.9,0,12.5,5.6,12.5,12.5s-5.6,12.5-12.5,12.5
		H525c-6.9,0-12.5-5.6-12.5-12.5S518.1,368.9,525,368.9z M512.5,325.8c0-6.9,5.6-12.5,12.5-12.5h155.7c6.9,0,12.5,5.6,12.5,12.5
		s-5.6,12.5-12.5,12.5H525C518.1,338.3,512.5,332.7,512.5,325.8z M525,420.5h155.7c6.9,0,12.5,5.6,12.5,12.5s-5.6,12.5-12.5,12.5
		H525c-6.9,0-12.5-5.6-12.5-12.5S518.1,420.5,525,420.5z M313.8,406.9c0-26.6,8.3-51,23.4-68.8c6.3-7.5,13.8-13.6,22.1-18.3
		c-21-14.3-34.9-38.5-34.9-65.8c0-43.9,35.7-79.6,79.6-79.6c43.9,0,79.7,35.7,79.7,79.6c0,27.8-14.4,52.3-36.1,66.6
		c7.8,4.6,14.7,10.5,20.8,17.6c15.1,17.8,23.4,42.2,23.4,68.8V438c0,6.9-5.6,12.5-12.5,12.5h-153c-6.9,0-12.5-5.6-12.5-12.5V406.9z
		 M680.7,677.4H323.6c-6.9,0-12.5-5.6-12.5-12.5c0-6.9,5.6-12.5,12.5-12.5h357.1c6.9,0,12.5,5.6,12.5,12.5
		C693.2,671.8,687.6,677.4,680.7,677.4z M680.7,614.3H323.6c-6.9,0-12.5-5.6-12.5-12.5s5.6-12.5,12.5-12.5h357.1
		c6.9,0,12.5,5.6,12.5,12.5S687.6,614.3,680.7,614.3z M680.7,552.2H323.6c-6.9,0-12.5-5.6-12.5-12.5s5.6-12.5,12.5-12.5h357.1
		c6.9,0,12.5,5.6,12.5,12.5C693.2,546.6,687.6,552.2,680.7,552.2z M680.7,496.5H323.6c-6.9,0-12.5-5.6-12.5-12.5
		c0-6.9,5.6-12.5,12.5-12.5h357.1c6.9,0,12.5,5.6,12.5,12.5C693.2,490.9,687.6,496.5,680.7,496.5z M693.2,265.5
		c0,6.9-5.6,12.5-12.5,12.5H525c-6.9,0-12.5-5.6-12.5-12.5S518.1,253,525,253h155.7C687.6,253,693.2,258.6,693.2,265.5z"/>
	<path class="st0" d="M466.8,406.9c0-43.2-26.3-73.4-64-73.4c-37.7,0-64,30.2-64,73.4v18.6h128V406.9z"/>
	<path class="st0" d="M750,0H250L0,433l250,433h500l250-433L750,0z M738.8,733H261.3c-6.9,0-12.5-5.6-12.5-12.5v-575
		c0-6.9,5.6-12.5,12.5-12.5h375.1c2.8,0,5.4,0.9,7.6,2.6l102.4,79c3.1,2.4,4.9,6,4.9,9.9v496C751.3,727.4,745.7,733,738.8,733z"/>
</g>
<g id="contact1" class="sprite">
	<path class="st0" d="M555.4,713.7c-1.6,1.1-2.4,2.6-2.4,4.4c0,1.7,0.6,3.2,1.9,4.5s2.9,1.9,4.9,1.9c2.2,0,4.4-0.7,6.4-2.2
		c1.5-1.1,2.5-2.5,2.9-4.1c0.3-1.1,0.5-3.1,0.5-6v-2.5c-1.6,0.5-4.1,1.2-7.5,1.9S556.4,713,555.4,713.7z"/>
	<path class="st0" d="M425.2,694.5c-3.2,0-5.9,1.2-8.1,3.7s-3.3,6-3.3,10.6s1.1,8.2,3.3,10.6s4.9,3.7,8.1,3.7c3.2,0,5.9-1.2,8.1-3.7
		c2.2-2.5,3.3-6,3.3-10.7c0-4.6-1.1-8.1-3.3-10.5C431.1,695.7,428.4,694.5,425.2,694.5z"/>
	<path class="st0" d="M750,0H250L0,433l250,433h500l250-433L750,0z M748.7,150L500,340.7L251.7,150H748.7z M250,202.2l146.3,112.4
		L250,460.9V202.2z M383.2,728.1c-4.5,3.4-10.2,5.1-17.1,5.1c-8.6,0-15.6-2.9-21.1-8.8c-5.5-5.8-8.3-13.8-8.3-24
		c0-10.7,2.8-19.1,8.3-25c5.5-5.9,12.8-8.9,21.8-8.9c7.9,0,14.3,2.3,19.2,7c2.9,2.8,5.1,6.7,6.6,11.9l-12.9,3.1
		c-0.8-3.3-2.4-6-4.8-7.9s-5.4-2.9-8.8-2.9c-4.8,0-8.7,1.7-11.6,5.1c-3,3.4-4.5,9-4.5,16.7c0,8.1,1.5,13.9,4.4,17.4
		c2.9,3.5,6.7,5.2,11.4,5.2c3.5,0,6.4-1.1,8.9-3.3c2.5-2.2,4.3-5.7,5.4-10.4l12.6,4C390.9,719.5,387.7,724.7,383.2,728.1z
		 M442.4,726.2c-4.6,4.6-10.3,7-17.2,7c-4.3,0-8.4-1-12.2-2.9c-3.9-1.9-6.8-4.8-8.9-8.5c-2-3.7-3-8.3-3-13.6c0-4.1,1-8.1,3-11.9
		s4.9-6.8,8.6-8.8c3.7-2,7.8-3,12.4-3c7.1,0,12.8,2.3,17.4,6.9c4.5,4.6,6.8,10.4,6.8,17.4C449.3,715.7,447,721.6,442.4,726.2z
		 M501.4,732.1H489v-23.8c0-5-0.3-8.3-0.8-9.8s-1.4-2.6-2.6-3.5s-2.6-1.2-4.3-1.2c-2.1,0-4.1,0.6-5.8,1.8c-1.7,1.2-2.9,2.7-3.5,4.7
		c-0.6,1.9-0.9,5.5-0.9,10.7v21.1h-12.3v-46.7h11.5v6.9c4.1-5.3,9.2-7.9,15.4-7.9c2.7,0,5.2,0.5,7.5,1.5c2.3,1,4,2.2,5.1,3.8
		c1.2,1.5,2,3.3,2.4,5.2c0.5,1.9,0.7,4.7,0.7,8.3V732.1z M526.6,733.2c-2.2,0-4.2-0.4-6-1.1c-1.8-0.7-3.1-1.7-3.9-2.9
		c-0.8-1.2-1.4-2.8-1.7-4.8c-0.3-1.4-0.4-4.3-0.4-8.7v-20.3h-5.7v-9.8h5.7v-9.3l12.4-7.2v16.5h8.4v9.8h-8.4v18.8
		c0,3.8,0.1,6,0.2,6.7c0.2,0.6,0.5,1.1,1.1,1.6s1.3,0.6,2.1,0.6c1.1,0,2.8-0.4,5-1.2l1.1,9.6C533.4,732.6,530.2,733.2,526.6,733.2z
		 M572.2,732.1c-0.3-0.8-0.7-2-1.2-3.6c-0.2-0.7-0.4-1.2-0.4-1.5c-2.1,2.1-4.4,3.6-6.8,4.6s-5,1.5-7.7,1.5c-4.8,0-8.6-1.3-11.4-3.9
		s-4.2-5.9-4.2-9.9c0-2.6,0.6-5,1.9-7.1c1.3-2.1,3-3.6,5.3-4.7c2.3-1.1,5.5-2.1,9.8-2.9c5.8-1.1,9.8-2.1,12-3v-1.2
		c0-2.4-0.6-4.1-1.8-5.1c-1.2-1-3.4-1.5-6.6-1.5c-2.2,0-3.9,0.4-5.1,1.3c-1.2,0.9-2.2,2.4-3,4.5l-11.2-2c1.3-4.5,3.4-7.9,6.5-10
		s7.6-3.3,13.7-3.3c5.5,0,9.6,0.7,12.3,2c2.7,1.3,4.6,3,5.7,5s1.6,5.7,1.6,11.1l-0.1,14.4c0,4.1,0.2,7.1,0.6,9.1s1.1,4,2.2,6.3
		H572.2z M628,728.9c-3.6,2.8-8.4,4.3-14.4,4.3c-6.8,0-12.3-2.2-16.3-6.5c-4.1-4.3-6.1-10.3-6.1-17.9c0-7.7,2-13.7,6.1-18
		c4.1-4.3,9.6-6.4,16.5-6.4c5.7,0,10.2,1.2,13.6,3.7c3.4,2.4,5.8,6.2,7.2,11.2l-12.2,2.2c-0.4-2.4-1.3-4.3-2.8-5.5s-3.3-1.8-5.6-1.8
		c-3.1,0-5.5,1.1-7.4,3.2c-1.8,2.1-2.7,5.7-2.7,10.7c0,5.5,0.9,9.4,2.8,11.7c1.9,2.3,4.4,3.4,7.5,3.4c2.3,0,4.3-0.7,5.8-2
		s2.5-3.6,3.2-6.9l12.1,2.1C634,721.9,631.6,726.1,628,728.9z M656.6,733.2c-2.2,0-4.2-0.4-6-1.1c-1.8-0.7-3.1-1.7-3.9-2.9
		c-0.8-1.2-1.4-2.8-1.7-4.8c-0.3-1.4-0.4-4.3-0.4-8.7v-20.3h-5.7v-9.8h5.7v-9.3L657,669v16.5h8.4v9.8H657v18.8c0,3.8,0.1,6,0.2,6.7
		c0.2,0.6,0.5,1.1,1.1,1.6s1.3,0.6,2.1,0.6c1.1,0,2.8-0.4,5-1.2l1.1,9.6C663.5,732.6,660.3,733.2,656.6,733.2z M250.6,520.4
		l179.7-179.7l69.7,53.6l69.6-53.4l179.5,179.5H250.6z M750,461.2L603.6,314.8L750,202.5V461.2z"/>
</g>
<g id="contact" class="sprite">
	<path class="st0" d="M750,0H250L0,433l250,433h500l250-433L750,0z M773.6,229.3L500,439.1L226.9,229.3H773.6z M225,286.8
		l160.9,123.6L225,571.3V286.8z M225.7,636.7l197.6-197.6L500,498l76.6-58.7L774,636.7H225.7z M614,410.6l161-123.5v284.5L614,410.6
		z"/>
</g>
<g id="aboutme1" class="sprite">
	<path class="st0" d="M679.9,693.8c-2.7,0-4.9,1-6.7,2.9s-2.6,4.6-2.6,8h18.5c-0.1-3.6-1-6.3-2.8-8.2
		C684.6,694.8,682.4,693.8,679.9,693.8z"/>
	<path class="st0" d="M750,0H250L0,433l250,433h500l250-433L750,0z M345.5,732.1l-5.6-14.6h-25.8l-5.3,14.6H295l25.1-64.4h13.8
		l25.8,64.4H345.5z M405.8,726.7c-3.8,4.3-8.4,6.5-13.8,6.5c-2.7,0-5.3-0.7-7.9-2c-2.6-1.3-4.8-3.3-6.7-5.9v6.9H366v-64.4h12.3v23.2
		c3.8-4.3,8.3-6.5,13.5-6.5c5.7,0,10.4,2.1,14.1,6.2c3.7,4.1,5.6,10,5.6,17.7C411.5,716.3,409.6,722.4,405.8,726.7z M459.9,726.2
		c-4.6,4.6-10.3,7-17.2,7c-4.3,0-8.4-1-12.2-2.9s-6.8-4.8-8.9-8.5c-2-3.7-3-8.3-3-13.6c0-4.1,1-8.1,3-11.9s4.9-6.8,8.6-8.8
		s7.8-3,12.4-3c7.1,0,12.8,2.3,17.4,6.9c4.5,4.6,6.8,10.4,6.8,17.4C466.8,715.7,464.5,721.6,459.9,726.2z M518.6,732.1h-11.5v-7
		c-1.7,2.5-3.9,4.5-6.7,5.9s-5.7,2.2-8.8,2.2c-3.1,0-5.9-0.7-8.4-2.1c-2.5-1.4-4.3-3.3-5.4-5.8c-1.1-2.5-1.7-5.9-1.7-10.3v-29.5
		h12.3v21.4c0,6.6,0.2,10.6,0.7,12.1c0.5,1.5,1.3,2.7,2.5,3.5c1.2,0.9,2.7,1.3,4.6,1.3c2.1,0,4-0.6,5.7-1.7c1.7-1.2,2.8-2.6,3.4-4.3
		c0.6-1.7,0.9-5.9,0.9-12.6v-19.7h12.3V732.1z M544.1,733.2c-2.2,0-4.2-0.4-6-1.1c-1.8-0.7-3.1-1.7-3.9-2.9
		c-0.8-1.2-1.4-2.8-1.7-4.8c-0.3-1.4-0.4-4.3-0.4-8.7v-20.3h-5.7v-9.8h5.7v-9.3l12.4-7.2v16.5h8.4v9.8h-8.4v18.8
		c0,3.8,0.1,6,0.2,6.7s0.5,1.1,1.1,1.6s1.3,0.6,2.1,0.6c1.1,0,2.8-0.4,5-1.2l1.1,9.6C551,732.6,547.7,733.2,544.1,733.2z
		 M648.5,732.1h-12.1v-50.7l-12.8,50.7h-12.5l-12.7-50.7v50.7h-12.1v-64.4h19.5l11.7,43.9l11.6-43.9h19.5V732.1z M701.4,712.3h-30.9
		c0.1,3.7,1.1,6.5,3,8.5c1.9,2,4.3,3.1,7.1,3.1c1.9,0,3.6-0.5,4.9-1.6s2.3-2.8,3-5.1l12.3,2.1c-1.6,4.5-4.1,7.9-7.5,10.3
		c-3.4,2.4-7.7,3.5-12.8,3.5c-8.1,0-14.1-2.7-18-8c-3.1-4.2-4.6-9.6-4.6-16.1c0-7.7,2-13.8,6.1-18.2s9.2-6.6,15.3-6.6
		c6.9,0,12.4,2.3,16.4,6.9C699.6,695.9,701.5,702.9,701.4,712.3z M500,600c-138.1,0-250-111.9-250-250s111.9-250,250-250
		s250,111.9,250,250S638.1,600,500,600z"/>
	<path class="st0" d="M388.6,693.8c-3,0-5.4,1.2-7.4,3.5c-2,2.3-2.9,5.8-2.9,10.5c0,4.8,0.8,8.4,2.3,10.7c2.1,3.3,5,4.9,8.5,4.9
		c2.7,0,5-1.2,7-3.5c1.9-2.3,2.9-6,2.9-11c0-5.3-1-9.2-2.9-11.5S391.6,693.8,388.6,693.8z"/>
	<polygon class="st0" points="318.2,706.6 335.7,706.6 326.9,682.7 	"/>
	<path class="st0" d="M442.7,694.5c-3.2,0-5.9,1.2-8.1,3.7s-3.3,6-3.3,10.6s1.1,8.2,3.3,10.6s4.9,3.7,8.1,3.7c3.2,0,5.9-1.2,8.1-3.7
		s3.3-6,3.3-10.7c0-4.6-1.1-8.1-3.3-10.5S445.9,694.5,442.7,694.5z"/>
	<path class="st0" d="M553.4,439.8l10-8.7c0,0,2.6-22.9,6.9-31.2c9.7-18.7,20-50,20-50s10-7.3,10-20c0-12.7-10-20-10-20
		s3.7-35.4,3.7-60c0-51.7-32.4-80-90.7-80c-58.3,0-100.8,24.1-100.8,80c0,24.6,7.8,60,7.8,60s-9.1,6.6-9.9,18.2
		c-2.2,1.2-2.1,5.1,0.3,6.1c1.8,10.1,9.6,15.8,9.6,15.8s11.7,36.3,20,50c4.9,8,6.9,31.2,6.9,31.2l10,8.8c0,0,4.7,50.7-10,60
		c-13.3,8.4-70.2,19.4-84,27.5c0.9,0.8,61.6,53.3,147.2,53.3S646.8,528,646.9,527c-14.7-8.1-70.4-18.9-83.5-27.2
		C548.7,490.5,553.4,439.8,553.4,439.8z"/>
</g>
<g id="aboutme" class="sprite">
	<path class="st0" d="M571.2,552.6l13.3-11.6c0,0,3.4-30.5,9.2-41.6c13-24.9,26.6-66.6,26.6-66.6s13.3-9.7,13.3-26.6
		c0-16.9-13.3-26.6-13.3-26.6s5-47.2,5-79.9c0-68.8-43.2-106.6-120.8-106.6c-77.6,0-134.3,32.1-134.3,106.6
		c0,32.8,10.4,79.9,10.4,79.9s-12.1,8.8-13.3,24.2c-3,1.6-2.9,6.7,0.4,8.1c2.4,13.5,12.8,21,12.8,21s15.6,48.3,26.6,66.6
		c6.5,10.7,9.2,41.6,9.2,41.6l13.3,11.7c0,0,6.3,67.6-13.3,79.9c-17.7,11.1-93.4,25.9-111.9,36.6c1.2,1.1,82.1,70.9,196.1,70.9
		s195.1-70.1,195.2-71.4c-19.6-10.7-93.7-25.2-111.2-36.2C564.8,620.2,571.2,552.6,571.2,552.6z"/>
	<path class="st0" d="M750,0H250L0,433l250,433h500l250-433L750,0z M500,766c-183.9,0-333-149.1-333-333s149.1-333,333-333
		s333,149.1,333,333S683.9,766,500,766z"/>
</g>
</svg>
